<svg width="1920" height="790" viewBox="0 0 1920 790" fill="none" xmlns="http://www.w3.org/2000/svg">
<g opacity="0.23" clip-path="url(#clip0)">
<rect width="1920" height="790" fill="url(#paint0_linear)"/>
<path d="M1092.38 -82.634C1076.49 -40.8671 1057.05 -0.539951 1034.27 37.904C1023.92 55.426 1012.45 73.166 992.515 87.166C941.494 122.953 852.227 124.075 776.041 116.285C707.061 109.339 638.72 97.0841 571.625 79.629C506.755 62.629 444.009 40.682 374.479 33.477C304.979 26.277 224.105 37.854 186.652 74.715C164.38 96.645 160.822 124.39 169.526 149.715C178.226 175.027 198.198 198.332 220.342 220.309C245.712 245.478 275.152 270.948 278.966 300.494C282.908 331.083 255.516 362.351 211.92 377.077C149.891 398.028 73.936 384.882 4.38098 377.061C-83.99 367.107 -178.787 367.202 -259.529 391.502C-340.275 415.824 -402.685 468.644 -394.394 523.866" stroke="white" stroke-miterlimit="10"/>
<path d="M1076.68 -90.898C1061.17 -50.0439 1042.07 -10.6462 1019.6 26.832C1009.38 43.932 998.067 61.232 978.611 74.932C928.921 109.976 842.547 111.904 768.461 105.232C750.874 103.652 733.372 101.735 715.955 99.481C666.549 93.136 617.548 83.9677 569.19 72.021C505.805 56.263 444.365 35.707 376.423 29.103C308.506 22.483 231.885 34.57 192.333 68.824C177.485 81.717 167.322 95.605 163.021 110.599C160.07 120.779 159.441 131.491 161.178 141.946C161.994 146.869 163.236 151.711 164.89 156.419C171.7 175.758 186.164 194.687 202.01 212.683C203.572 214.468 205.159 216.238 206.772 218.023C231.553 245.641 257.716 273.876 259.15 304.749C260.532 334.485 235.086 364.742 192.616 379.249C132.2 399.9 58.498 388.065 -8.82999 381.477C-14.1293 380.956 -19.454 380.476 -24.804 380.039C-105.598 373.371 -190.078 376.089 -262.167 399.094C-339.018 423.616 -397.719 475.294 -388.426 528.954" stroke="#F9F9F9" stroke-miterlimit="10"/>
<path d="M1061.02 -99.161C1045.9 -59.2076 1027.12 -20.7348 1004.93 15.768C994.842 32.437 983.68 49.28 964.736 62.71C916.352 97.01 832.87 99.761 760.883 94.184C743.782 92.8567 726.767 91.2133 709.837 89.254C661.721 83.6877 613.96 75.395 566.784 64.416C504.883 49.928 444.749 30.762 378.419 24.743C312.119 18.707 239.257 31.237 198.067 62.963C181.453 75.763 167.859 88.369 160.614 102.921C155.65 112.614 152.979 123.317 152.806 134.205C152.758 139.275 153.264 144.334 154.316 149.294C158.616 169.739 173.004 190.421 188.543 209.95C190.079 211.893 191.643 213.821 193.202 215.75C217.394 245.817 240.357 276.691 239.359 309.033C238.459 337.868 214.706 367.145 173.359 381.46C114.539 401.825 43.085 391.299 -21.961 385.931C-27.081 385.504 -32.2266 385.12 -37.398 384.778C-115.398 379.564 -196.272 383.498 -264.698 406.708C-337.661 431.45 -392.678 481.979 -382.361 534.056" stroke="#F4F4F4" stroke-miterlimit="10"/>
<path d="M1045.35 -107.424C1030.61 -68.3789 1012.17 -30.8308 990.285 4.70898C980.352 20.951 969.293 37.352 950.861 50.482C903.783 84.041 823.194 87.596 753.331 83.141C736.742 82.0823 720.213 80.7076 703.744 79.017C656.917 74.2404 610.396 66.8233 564.405 56.801C503.988 43.577 445.159 25.786 380.417 20.351C315.7 14.916 246.196 27.809 203.777 57.07C185.319 69.805 168.423 81.102 158.235 95.227C151.297 104.849 146.357 115.34 144.488 126.448C143.592 131.632 143.351 136.909 143.771 142.153C145.537 163.704 159.848 186.124 175.105 207.217C176.615 209.303 178.126 211.388 179.662 213.474C203.291 245.99 223.105 279.392 219.572 313.298C216.654 341.185 194.305 369.546 154.087 383.64C96.871 403.706 27.649 394.495 -35.148 390.355C-40.0887 390.022 -45.0554 389.732 -50.048 389.486C-125.286 385.71 -202.522 390.876 -267.315 414.308C-336.409 439.272 -387.686 488.647 -376.345 539.16" stroke="#EEEEEE" stroke-miterlimit="10"/>
<path d="M1029.68 -115.672C1015.34 -77.526 997.226 -40.905 975.616 -6.352C965.816 9.464 954.906 25.406 936.986 38.267C891.213 71.099 813.517 75.46 745.78 72.095C729.677 71.305 713.635 70.205 697.652 68.795C652.122 64.8024 606.85 58.2615 562.052 49.203C503.117 37.225 445.594 20.838 382.439 15.989C319.309 11.138 252.775 24.3 209.539 51.189C189.108 63.895 169.008 73.865 155.908 87.548C146.922 96.87 139.857 107.314 136.17 118.69C134.422 123.964 133.431 129.459 133.226 135.011C132.484 157.668 146.692 181.842 161.642 204.468L166.096 211.199C189.136 246.18 205.93 282.03 199.76 317.58C195.101 344.487 173.878 371.948 134.787 385.836C79.187 405.602 12.214 397.702 -48.355 394.795C-53.117 394.574 -57.904 394.368 -62.717 394.21C-135.192 391.887 -208.792 398.286 -269.952 421.907C-335.152 447.076 -382.72 495.314 -370.381 544.262" stroke="#E9E9E9" stroke-miterlimit="10"/>
<path d="M1014.01 -123.935C1000.04 -86.698 982.267 -51.0012 960.971 -17.4111C951.294 -2.02206 940.517 13.4779 923.109 26.0389C878.642 58.1289 803.839 63.3109 738.2 61.0519C722.609 60.5146 707.053 59.6813 691.531 58.5519C647.287 55.3532 603.255 49.6891 559.642 41.5859C502.195 30.8729 445.978 15.8629 384.414 11.6129C322.897 7.34695 258.948 20.6509 215.249 45.3129C192.772 57.9999 169.549 66.613 153.502 79.868C142.52 88.906 133.278 99.2679 127.802 110.947C125.229 116.298 123.486 122.009 122.631 127.885C119.38 151.648 133.511 177.56 148.154 201.75C149.613 204.136 151.047 206.537 152.506 208.939C174.957 246.369 188.858 284.621 179.949 321.862C173.749 347.762 153.449 374.362 115.514 388.032C61.514 407.498 -3.226 400.905 -61.517 399.235C-66.125 399.109 -70.707 399.014 -75.317 398.951C-145 398.066 -214.991 405.698 -272.517 429.524C-333.829 454.915 -377.707 501.999 -364.344 549.383" stroke="#E3E3E3" stroke-miterlimit="10"/>
<path d="M998.349 -132.199C984.765 -95.8596 967.316 -61.0844 946.304 -28.472C936.755 -13.509 926.131 1.54796 909.235 13.828C866.073 45.171 794.189 51.16 730.65 50.007C715.546 49.7403 700.476 49.182 685.44 48.332C642.482 45.9172 599.69 41.1276 557.261 33.985C501.299 24.537 446.387 10.917 386.407 7.25096C326.477 3.56996 264.858 16.905 220.954 39.451C196.301 52.107 170.112 59.375 151.117 72.204C138.117 80.941 126.746 91.259 119.45 103.204C116.057 108.617 113.567 114.546 112.077 120.758C106.317 145.627 120.346 173.277 134.707 199.015C136.141 201.559 137.549 204.115 138.957 206.662C160.845 246.541 171.957 287.147 160.157 326.142C152.631 351.027 133.047 376.781 96.234 390.242C43.834 409.423 -18.659 404.13 -74.697 403.688C-79.126 403.656 -83.529 403.656 -87.958 403.688C-154.876 404.257 -221.232 413.105 -275.094 437.137C-332.515 462.749 -372.681 508.679 -358.294 554.499" stroke="#DEDEDE" stroke-miterlimit="10"/>
<path d="M982.657 -140.462C969.448 -105.034 952.336 -71.1875 931.636 -39.547C922.215 -25.011 911.745 -10.412 895.336 1.57996C853.506 32.18 784.488 38.994 723.074 38.931C708.482 38.931 693.899 38.6413 679.324 38.062C637.651 36.4425 596.098 32.5286 554.855 26.338C500.378 18.169 446.772 5.93796 388.355 2.85896C330.038 -0.241037 263.862 8.53097 226.64 33.543C196.534 43.007 170.627 52.108 148.688 64.495C133.688 72.932 120.144 83.202 111.056 95.431C106.868 100.912 103.624 107.053 101.456 113.601C93.187 139.576 107.114 168.98 121.168 196.267L125.315 204.372C146.615 246.7 155.115 289.645 140.265 330.393C131.565 354.283 112.54 379.152 76.854 392.408C26.064 411.289 -34.199 407.308 -87.984 408.097C-92.234 408.16 -96.458 408.255 -100.707 408.381C-164.835 410.388 -227.607 420.468 -277.807 444.705C-331.337 470.522 -367.817 515.315 -352.407 559.571" stroke="#D8D8D8" stroke-miterlimit="10"/>
<path d="M966.989 -148.726C954.729 -115.196 937.882 -82.366 916.967 -50.608C907.674 -36.496 897.329 -22.342 881.46 -10.634C840.935 19.228 774.81 26.844 715.495 27.904C701.39 28.1567 687.293 28.141 673.204 27.857C632.816 27.0286 592.505 23.9907 552.449 18.757C499.457 11.821 447.156 0.981992 390.349 -1.51401C333.619 -4.01401 269.568 4.34798 232.371 27.669C199.86 36.604 171.213 44.856 146.329 56.804C129.305 64.957 113.638 75.164 102.729 87.661C97.7513 93.2081 93.7521 99.5605 90.902 106.447C80.129 133.525 93.978 164.667 107.729 193.504C109.086 196.348 110.443 199.204 111.774 202.083C132.484 246.876 138.526 292.127 120.474 334.661C110.774 357.539 92.135 381.555 57.6 394.59C8.422 413.171 -49.587 410.501 -101.12 412.523C-105.19 412.681 -109.235 412.871 -113.306 413.108C-174.671 416.566 -233.804 427.863 -280.371 452.322C-330.035 478.36 -362.777 522 -346.371 564.692" stroke="#D2D2D2" stroke-miterlimit="10"/>
<path d="M951.322 -156.989C939.469 -124.378 922.932 -92.478 902.322 -61.668C893.157 -47.968 882.968 -34.268 867.583 -22.868C828.366 6.27099 765.134 14.694 707.943 16.843C694.35 17.3643 680.739 17.617 667.111 17.601C628.008 17.5698 588.936 15.4126 550.068 11.139C498.561 5.46698 447.568 -3.99701 392.346 -5.89301C337.204 -7.80501 275.252 0.157986 238.08 21.789C203.162 30.226 171.75 37.605 143.949 49.123C124.928 56.976 107.085 67.123 94.387 79.917C88.6362 85.5343 83.8911 92.096 80.358 99.317C67.072 127.504 80.819 160.384 94.284 190.783C95.615 193.783 96.946 196.803 98.226 199.821C118.373 247.063 122.136 294.653 100.709 338.94C90.109 360.84 71.755 383.954 38.347 396.784C-9.21798 415.065 -65 413.706 -114.28 416.961C-118.171 417.214 -122.037 417.514 -125.928 417.83C-184.501 422.73 -240.028 435.257 -282.958 459.921C-328.731 486.165 -357.758 528.651 -340.328 569.794" stroke="#CDCDCD" stroke-miterlimit="10"/>
<path d="M935.655 -165.252C924.186 -133.541 907.981 -102.573 887.655 -72.743C878.618 -59.471 868.583 -46.231 853.709 -35.092C815.795 -6.69901 755.456 2.54397 700.365 5.79797C687.258 6.57197 674.133 7.09866 660.992 7.37799C623.173 8.14963 585.341 6.86773 547.661 3.53798C497.661 -0.886021 447.949 -8.94402 394.317 -10.255C340.787 -11.582 280.909 -4.01403 243.789 15.91C206.464 23.838 172.314 30.368 141.543 41.444C120.5 48.996 100.532 59.093 86.017 72.159C79.488 77.8481 73.9888 84.6203 69.761 92.178C53.961 121.471 67.611 156.105 80.769 188.037C82.0743 191.197 83.3543 194.364 84.609 197.537C104.167 247.228 105.857 297.188 80.846 343.213C69.48 364.132 51.278 386.363 19.022 398.987C-26.956 416.987 -80.485 416.936 -127.512 421.407C-131.224 421.755 -134.912 422.15 -138.622 422.56C-194.43 428.912 -246.322 442.673 -285.592 467.527C-327.474 493.992 -352.818 535.327 -334.36 574.904" stroke="#C7C7C7" stroke-miterlimit="10"/>
<path d="M919.962 -173.516C908.903 -142.722 893.005 -112.686 872.986 -83.8041C864.077 -70.9591 854.17 -58.1611 839.808 -47.3221C803.2 -19.6721 745.779 -9.62205 692.787 -5.26205C680.192 -4.21805 667.546 -3.42272 654.848 -2.87605C618.33 -1.30016 581.754 -1.70074 545.28 -4.07605C496.768 -7.23605 448.358 -13.9191 396.314 -14.6301C344.372 -15.3731 286.592 -8.21506 249.498 10.0179C209.767 17.4279 172.852 23.0999 139.162 33.7499C116.096 41.0179 93.978 51.0499 77.671 64.4019C70.3789 70.1766 64.1279 77.1555 59.188 85.037C40.888 115.437 54.452 151.808 67.303 185.304C68.583 188.604 69.837 191.94 71.041 195.274C90.011 247.414 89.831 299.791 61.031 347.491C48.973 367.462 30.849 388.761 -0.280975 401.179C-44.646 418.879 -95.923 420.139 -140.697 425.843C-144.23 426.301 -147.737 426.775 -151.244 427.297C-204.262 435.084 -252.544 450.078 -288.179 475.137C-326.169 501.823 -347.801 542.003 -328.345 580.017" stroke="#C2C2C2" stroke-miterlimit="10"/>
<path d="M904.295 -181.779C893.62 -151.901 878.055 -122.798 858.317 -94.8631C849.536 -82.4441 839.783 -70.104 825.933 -59.534C790.633 -32.6271 736.103 -21.7561 685.233 -16.3051C673.124 -14.9937 660.964 -13.9247 648.753 -13.0981C613.502 -10.7178 578.148 -10.2484 542.846 -11.692C495.819 -13.592 448.715 -18.881 398.257 -19.007C347.927 -19.165 292.247 -12.4071 255.179 4.15594C213.041 11.0559 173.361 15.864 136.728 26.086C111.667 33.054 87.399 43.039 69.274 56.671C61.2126 62.5175 54.2158 69.7057 48.589 77.9219C27.776 109.427 41.242 147.553 53.811 182.581C55.065 186.041 56.269 189.517 57.446 193.009C75.852 247.609 74.009 302.456 41.216 351.783C28.544 370.822 10.416 391.188 -19.584 403.383C-62.336 420.783 -111.384 423.354 -153.907 430.29C-157.261 430.843 -160.589 431.412 -163.917 432.028C-214.17 441.271 -258.817 457.482 -290.817 482.746C-324.917 509.638 -342.862 548.679 -322.356 585.114" stroke="#BCBCBC" stroke-miterlimit="10"/>
<path d="M888.628 -190.043C878.362 -161.082 863.105 -132.91 843.674 -105.943C835.021 -93.951 825.396 -82.053 812.058 -71.783C778.087 -45.615 726.426 -33.939 677.684 -27.363C666.084 -25.799 654.41 -24.4614 642.663 -23.35C608.694 -20.1639 574.577 -18.819 540.463 -19.321C494.921 -19.969 449.122 -23.871 400.252 -23.413C351.51 -22.971 301.564 -12.448 260.911 -1.76703C218.825 9.29297 173.948 8.58198 134.37 18.346C107.285 25.014 80.87 34.936 60.949 48.856C51.759 55.256 43.925 62.523 38.037 70.723C14.715 103.334 28.079 143.198 40.337 179.775C41.537 183.393 42.743 187.027 43.87 190.661C61.688 247.715 58.436 305.116 21.393 355.992C8.18301 374.13 -10.018 393.517 -38.869 405.509C-80.034 422.609 -126.831 426.491 -167.069 434.66C-170.243 435.308 -173.392 435.971 -176.541 436.682C-224.029 447.363 -265.041 464.806 -293.405 490.276C-323.639 517.389 -337.847 555.276 -316.343 590.148" stroke="#B7B7B7" stroke-miterlimit="10"/>
<path d="M872.961 -198.29C863.08 -170.245 848.18 -143.006 829.006 -116.983C820.481 -105.417 811.006 -93.962 798.184 -83.977C765.517 -58.539 716.749 -46.057 670.106 -38.39C659.021 -36.557 647.806 -34.946 636.544 -33.555C603.861 -29.551 570.985 -27.3304 538.061 -26.903C494.003 -26.287 449.511 -28.803 402.227 -27.756C355.097 -26.729 306.56 -16.933 266.627 -7.61104C221.853 2.83296 174.518 1.34796 131.997 10.701C102.915 17.068 74.346 26.943 52.611 41.132C42.576 47.673 34 55.132 27.472 63.615C1.61601 97.332 14.928 138.934 26.883 177.075C28.061 180.835 29.213 184.627 30.313 188.435C47.542 247.935 43.139 307.994 1.59 360.307C-12.132 377.576 -30.436 395.968 -58.16 407.754C-97.712 424.565 -142.26 429.748 -180.272 439.149C-183.272 439.892 -186.237 440.666 -189.206 441.456C-233.906 453.59 -271.331 472.25 -296.006 497.941C-322.348 525.275 -332.844 562.01 -310.342 595.316" stroke="#B1B1B1" stroke-miterlimit="10"/>
<path d="M857.293 -206.554C847.821 -179.425 833.229 -153.103 814.362 -128.044C805.962 -116.905 796.647 -105.908 784.308 -96.207C752.948 -71.507 707.073 -58.207 662.554 -49.439C651.954 -47.3377 641.254 -45.4574 630.454 -43.798C599.064 -38.9802 567.434 -35.8842 535.706 -34.524C493.133 -32.644 449.946 -33.781 404.25 -32.138C358.708 -30.526 311.65 -21.538 272.359 -13.494C224.794 -3.76102 175.079 -5.89402 129.613 3.01698C98.513 9.08398 67.789 18.896 44.263 33.369C33.409 40.037 24.063 47.7 16.897 56.469C-11.468 91.292 1.74201 134.647 13.415 174.321C14.567 178.239 15.693 182.174 16.743 186.139C33.409 248.091 28.084 310.927 -18.201 364.568C-32.383 380.984 -50.841 398.368 -77.439 409.93C-115.378 426.441 -157.695 432.93 -193.458 443.568C-196.274 444.405 -199.064 445.274 -201.858 446.175C-243.791 459.747 -277.583 479.639 -298.626 505.536C-321.077 533.075 -327.887 568.673 -304.335 600.415" stroke="#ABABAB" stroke-miterlimit="10"/>
<path d="M841.626 -214.817C832.564 -188.605 818.279 -163.217 799.693 -139.117C791.425 -128.407 782.234 -117.857 770.433 -108.436C740.381 -84.483 697.421 -70.373 655.002 -60.498C644.916 -58.144 634.676 -55.979 624.359 -54.036C594.257 -48.3909 563.866 -44.4182 533.325 -42.136C492.237 -39.008 450.381 -38.736 406.247 -36.511C362.292 -34.311 316.747 -26.194 278.093 -19.384C227.738 -10.52 175.616 -13.143 127.232 -4.67401C94.132 1.10899 61.261 10.857 35.917 25.615C24.217 32.409 14.131 40.277 6.349 49.331C-24.525 85.26 -11.417 130.353 -0.0509949 171.591C1.07567 175.668 2.15102 179.76 3.17502 183.868C19.252 248.285 13.313 314.028 -38.015 368.839C-52.633 384.449 -71.269 400.755 -96.715 412.115C-133.043 428.322 -173.132 436.127 -206.619 447.993C-209.256 448.925 -211.867 449.893 -214.478 450.884C-253.62 465.91 -283.803 487.019 -301.211 513.12C-319.771 540.881 -322.869 575.32 -298.318 605.503" stroke="#A6A6A6" stroke-miterlimit="10"/>
<path d="M825.933 -223.08C817.255 -197.768 803.303 -173.326 785.024 -150.18C776.909 -139.89 767.846 -129.781 756.531 -120.664C727.782 -97.454 687.718 -82.523 647.398 -71.558C637.798 -68.9353 628.07 -66.5127 618.214 -64.29C589.4 -57.8227 560.247 -52.9698 530.892 -49.754C491.292 -45.362 450.738 -43.718 408.192 -40.89C365.85 -38.109 321.843 -30.904 283.776 -25.264C230.656 -17.411 176.154 -20.398 124.826 -12.355C89.703 -6.87201 54.682 2.82899 27.546 17.87C15.053 24.79 4.199 32.864 -4.224 42.186C-37.606 79.221 -24.602 126.068 -13.517 168.839C-12.4163 173.058 -11.3753 177.303 -10.394 181.574C5.11999 248.455 -1.17801 317.28 -57.805 373.117C-72.829 387.938 -91.674 403.169 -115.994 414.31C-150.729 430.234 -188.544 439.335 -219.802 452.433C-222.259 453.46 -224.693 454.519 -227.102 455.609C-263.48 472.073 -290.027 494.43 -303.802 520.721C-318.471 548.703 -317.882 581.993 -292.308 610.607" stroke="#A0A0A0" stroke-miterlimit="10"/>
<path d="M810.266 -231.344C801.997 -206.944 788.352 -183.438 770.356 -161.255C762.114 -150.881 752.832 -141.378 742.656 -132.894C715.214 -110.424 678.042 -94.6901 639.851 -82.6031C630.763 -79.7271 621.496 -77.0261 612.126 -74.5131C584.605 -67.2064 556.69 -61.4774 528.516 -57.3541C490.398 -51.6981 451.153 -48.6641 410.193 -45.2671C369.438 -41.8861 327.093 -35.6611 289.493 -31.1421C233.608 -24.4421 176.725 -27.65 122.453 -20.05C85.333 -14.85 48.162 -5.21406 19.234 10.1119C5.87098 17.1749 -5.72602 25.4379 -14.788 35.0599C-50.679 73.1849 -37.751 121.786 -26.974 166.121C-25.899 170.498 -24.9 174.906 -23.928 179.33C-9.00301 248.645 -15.378 320.74 -77.586 377.399C-94.7502 393.246 -114.192 406.433 -135.263 416.52C-168.389 432.146 -203.973 442.574 -232.978 456.889C-235.256 458.027 -237.535 459.18 -239.736 460.365C-273.323 478.282 -296.261 501.856 -306.373 528.352C-317.173 556.539 -312.85 588.692 -286.251 615.742" stroke="#9B9B9B" stroke-miterlimit="10"/>
<path d="M794.599 -239.607C786.714 -216.128 773.399 -193.534 755.713 -172.315C747.59 -162.443 738.575 -153.34 728.781 -145.123C702.669 -123.382 668.365 -106.84 632.295 -93.6621C623.695 -90.5181 614.94 -87.5514 606.029 -84.7621C579.803 -76.6201 553.124 -70.0149 526.129 -64.9801C489.498 -58.0811 451.559 -53.6571 412.186 -49.6571C373.044 -45.6911 332.442 -40.4571 295.22 -37.0491C236.647 -31.6791 177.281 -34.9181 120.09 -27.7571C80.922 -22.8431 41.6 -13.2571 10.855 2.35794C-3.32702 9.54694 -15.667 18.0159 -25.369 27.9069C-63.769 67.1379 -50.943 117.477 -40.469 163.36C-39.445 167.895 -38.447 172.445 -37.525 177.027C-23.189 248.791 -29.359 324.346 -97.425 381.653C-114.878 396.298 -134.069 408.737 -154.564 418.688C-186.078 434.014 -219.434 445.753 -246.164 461.301C-248.263 462.534 -250.337 463.787 -252.385 465.061C-283.207 484.416 -302.51 509.222 -308.985 535.94C-315.897 564.348 -307.859 595.332 -280.262 620.833" stroke="#959595" stroke-miterlimit="10"/>
<path d="M778.931 -247.871C771.456 -225.309 758.451 -203.647 741.043 -183.371C733.036 -174.011 724.296 -165.304 714.905 -157.333C690.099 -136.333 658.687 -118.971 624.716 -104.687C616.626 -101.274 608.332 -98.035 599.91 -94.97C574.986 -85.9856 549.545 -78.5055 523.724 -72.57C488.576 -64.401 451.943 -58.591 414.157 -54.005C376.602 -49.455 337.843 -45.252 300.928 -42.898C239.693 -38.998 177.843 -42.14 117.683 -35.409C76.52 -30.811 35.047 -21.267 2.509 -5.39102C-12.491 1.90898 -25.625 10.599 -35.942 20.774C-76.851 61.111 -64.128 113.204 -53.942 160.636C-52.942 165.313 -51.9947 170.021 -51.1 174.761C-37.327 248.989 -43.062 328.211 -117.25 385.928C-133.583 398.628 -152.936 410.355 -173.877 420.878C-203.777 435.904 -234.877 448.955 -259.377 465.734C-261.297 467.061 -263.217 468.404 -265.06 469.779C-293.092 490.588 -308.785 516.61 -311.626 543.533C-314.647 572.163 -302.926 601.993 -274.301 625.933" stroke="#909090" stroke-miterlimit="10"/>
<path d="M763.239 -256.134C743.117 -194.624 677.863 -140.541 593.793 -105.224C509.723 -69.907 408.141 -52.456 306.637 -48.806C242.837 -46.515 178.381 -49.422 115.303 -43.118C52.225 -36.814 -11.802 -19.4971 -46.515 13.6349C-89.932 55.076 -77.286 108.909 -67.402 157.889C-51.146 238.437 -51.376 328.608 -137.06 390.196C-179.737 420.876 -240.102 441.389 -277.708 474.505C-329.83 520.405 -325.785 587.633 -268.287 631.02" stroke="#8A8A8A" stroke-miterlimit="10"/>
<path d="M230.246 799.117C271.311 764.171 314.393 731.667 359.27 701.773C379.776 688.073 401.433 674.439 428.62 666.286C498.073 645.43 581.094 665.67 646.527 691.013C706.789 714.35 762.521 742.113 812.159 773.536C861.359 804.678 905.522 839.88 965.119 863.09C1024.74 886.3 1106.56 894.88 1164.16 869.821C1198.44 854.906 1219.07 830.147 1226.88 804.721C1234.69 779.283 1230.85 753.039 1224.17 727.491C1216.51 698.229 1205.27 667.72 1220.25 639.564C1235.74 610.413 1280.56 588.088 1330 584.896C1400.32 580.361 1462.17 610.571 1521.43 634.382C1596.72 664.623 1684.22 687.138 1773.92 683.947C1863.6 680.771 1954.23 646.912 1981.13 593.998" stroke="white" stroke-miterlimit="10"/>
<path d="M239.539 810.477C279.925 776.058 322.417 744.191 366.769 715.061C387.044 701.694 408.469 688.406 435.169 680.38C488.801 664.264 550.548 672.448 605.895 688.327C620.973 692.64 635.595 697.538 649.441 702.658C708.987 724.699 764.231 751.164 813.691 781.263C862.691 811.093 906.645 845.127 965.653 867.484C1001.19 880.802 1038.59 888.448 1076.5 890.141C1110.11 891.484 1143.47 887.341 1171.37 875.573C1176.21 873.543 1180.93 871.243 1185.51 868.684C1212.87 853.342 1229.49 831.284 1236.76 808.707C1239.03 801.577 1240.56 794.234 1241.34 786.792C1243.39 767.627 1240.98 748.24 1237.42 729.292C1231.82 699.225 1224.37 668.446 1241.21 640.354C1257.95 612.454 1300.94 590.754 1349.19 587.487C1417.85 582.842 1478.45 611.313 1536.41 633.449C1540.96 635.187 1545.6 636.909 1550.23 638.584C1620.58 663.99 1700.22 681.607 1781.09 677.563C1867.34 673.25 1953.81 639.58 1978.8 587.863" stroke="#F9F9F9" stroke-miterlimit="10"/>
<path d="M248.832 821.839C288.549 787.946 330.462 756.715 374.298 728.349C394.343 715.298 415.565 702.374 441.78 694.474C494.439 678.611 554.958 686.005 609.409 700.841C624.257 704.87 638.67 709.468 652.366 714.287C711.195 735.048 765.979 760.202 815.233 788.974C864.027 817.493 907.833 850.325 966.171 871.861C1002.9 885.359 1041.43 893.294 1080.5 895.403C1115.06 897.062 1149.65 893.175 1178.58 881.325C1183.61 879.272 1188.52 876.935 1193.29 874.325C1221.81 858.699 1238.84 835.963 1246.67 812.673C1249.11 805.34 1250.83 797.79 1251.82 790.126C1254.43 770.439 1252.99 750.484 1250.69 731.081C1247.16 700.224 1243.39 669.192 1262.18 641.116C1280.03 614.461 1321.3 593.384 1368.37 590.035C1435.37 585.279 1494.71 612.013 1551.36 632.474C1555.82 634.086 1560.35 635.666 1564.88 637.214C1633.57 660.63 1710.62 676.256 1788.29 671.152C1871.08 665.717 1953.44 632.221 1976.5 581.708" stroke="#F4F4F4" stroke-miterlimit="10"/>
<path d="M258.099 833.181C297.152 799.832 338.476 769.237 381.773 741.62C401.613 728.901 422.579 716.32 448.333 708.566C500.045 692.971 559.309 699.56 612.89 713.366C627.533 717.126 641.741 721.408 655.284 725.927C713.396 745.393 767.719 769.235 816.769 796.695C865.358 823.903 909.057 855.518 966.708 876.248C1002.32 889.048 1043.53 898.368 1084.49 900.675C1120 902.65 1155.84 899 1185.79 887.075C1191.02 885.008 1196.12 882.64 1201.08 879.981C1230.72 864.055 1248.16 840.655 1256.55 816.655C1259.15 809.116 1261.07 801.359 1262.29 793.476C1265.46 773.252 1264.97 752.759 1263.95 732.883C1262.47 701.22 1262.34 669.999 1283.15 641.907C1301.97 616.501 1341.65 596.055 1387.57 592.627C1452.9 587.761 1510.99 612.756 1566.34 631.542C1570.69 633.027 1575.09 634.476 1579.55 635.887C1646.59 657.296 1721.06 670.931 1795.48 664.769C1874.82 658.212 1953.02 624.89 1974.17 575.578" stroke="#EEEEEE" stroke-miterlimit="10"/>
<path d="M267.392 844.542C305.777 811.713 346.522 781.749 389.299 754.892C408.909 742.492 429.645 730.292 454.912 722.644C505.651 707.318 563.686 713.101 616.397 725.883C630.81 729.359 644.839 733.341 658.197 737.559C715.597 755.745 769.455 778.276 818.297 804.409C866.655 830.309 910.278 860.673 967.212 880.628C1004.1 893.552 1046.31 903.238 1088.45 905.94C1124.91 908.247 1161.98 904.834 1192.95 892.81C1198.37 890.725 1203.66 888.324 1208.8 885.621C1239.6 869.394 1257.44 845.315 1266.37 820.604C1269.13 812.856 1271.24 804.892 1272.67 796.793C1276.44 776.048 1276.87 755.002 1277.1 734.652C1277.67 702.183 1281.1 670.804 1303.98 642.664C1323.67 618.49 1361.89 598.677 1406.61 595.185C1470.28 590.208 1527.11 613.45 1581.15 630.577C1585.4 631.92 1589.7 633.247 1594.03 634.527C1659.41 653.945 1731.32 665.59 1802.52 658.369C1878.4 650.69 1952.48 617.542 1971.71 569.431" stroke="#E9E9E9" stroke-miterlimit="10"/>
<path d="M276.684 855.902C312.857 824.681 353.177 795.356 396.825 768.18C416.204 756.109 436.71 744.259 461.516 736.754C511.308 721.697 568.089 726.674 619.929 738.429C634.111 741.621 647.935 745.302 661.145 749.236C717.823 766.126 771.199 787.361 819.839 812.167C867.993 836.736 911.539 865.855 967.73 885.037C1005.9 898.072 1049.11 908.152 1092.43 911.237C1129.83 913.86 1168.13 910.7 1200.16 898.597C1205.77 896.493 1211.26 894.061 1216.59 891.313C1248.54 874.802 1266.77 850.043 1276.29 824.621C1279.21 816.664 1281.52 808.492 1283.18 800.178C1287.5 778.911 1288.83 757.297 1290.4 736.472C1292.9 703.197 1299.92 671.66 1324.98 643.472C1345.41 620.53 1382.27 601.365 1425.82 597.778C1487.82 592.69 1543.4 614.194 1596.14 629.647C1600.28 630.864 1604.47 632.049 1608.71 633.202C1672.43 650.629 1741.78 660.267 1809.72 651.988C1882.17 643.188 1952.08 610.197 1969.41 563.303" stroke="#E3E3E3" stroke-miterlimit="10"/>
<path d="M285.977 867.262C321.433 836.594 361.19 807.901 404.326 781.468C423.475 769.729 443.75 758.226 468.096 750.848C516.915 736.059 572.467 740.23 623.437 750.943C637.415 753.85 651.037 757.231 664.09 760.865C718.179 775.811 770.825 795.556 821.402 819.865C869.351 843.123 912.845 870.965 968.295 889.401C1007.77 902.544 1051.98 913.02 1096.45 916.479C1134.8 919.434 1174.32 916.511 1207.4 904.313C1213.2 902.189 1218.88 899.725 1224.4 896.934C1257.47 880.123 1276.14 854.701 1286.2 828.567C1289.29 820.402 1291.78 812.021 1293.65 803.492C1298.54 781.692 1300.82 759.536 1303.66 738.238C1308.21 704.138 1318.61 672.478 1345.95 644.228C1366.99 622.487 1402.63 603.985 1445.02 600.336C1505.36 595.136 1559.68 614.904 1611.11 628.665C1615.16 629.755 1619.25 630.798 1623.35 631.825C1685.43 647.246 1752.2 654.909 1816.91 645.571C1885.9 635.633 1951.7 602.832 1967.11 557.138" stroke="#DEDEDE" stroke-miterlimit="10"/>
<path d="M295.27 878.606C329.984 848.491 369.203 820.446 411.852 794.74C430.796 783.316 450.815 772.178 474.7 764.925C522.572 750.405 576.9 753.77 626.969 763.456C640.716 766.079 654.131 769.176 667.033 772.494C720.529 786.23 772.708 804.66 822.963 827.569C870.707 849.515 914.176 876.043 968.832 893.769C1009.64 907.009 1054.8 917.896 1100.44 921.735C1139.74 925.006 1180.52 922.32 1214.59 910.059C1220.59 907.917 1226.45 905.422 1232.15 902.586C1266.38 885.486 1285.43 859.373 1296.05 832.545C1299.31 824.168 1302 815.579 1304.09 806.838C1309.57 784.513 1312.77 761.792 1316.89 740.038C1323.49 705.138 1337.19 673.33 1366.89 645.017C1388.45 624.461 1422.98 606.655 1464.17 602.926C1522.82 597.617 1575.92 615.645 1626.04 627.732C1629.98 628.68 1633.98 629.612 1637.97 630.497C1698.39 643.927 1762.59 649.583 1824.06 639.187C1889.59 628.127 1951.24 595.5 1964.73 551.007" stroke="#D8D8D8" stroke-miterlimit="10"/>
<path d="M304.537 889.967C338.537 860.405 377.19 832.992 419.327 808.012C438.041 796.92 457.827 786.129 481.227 779.019C528.152 764.767 581.195 767.39 630.398 775.985C643.915 778.339 657.15 781.12 669.898 784.138C722.8 796.678 774.51 813.796 824.445 835.298C871.984 855.933 915.453 881.134 969.315 898.166C1011.43 911.502 1057.56 922.783 1104.38 927.013C1144.63 930.613 1186.64 928.166 1221.76 915.813C1227.95 913.646 1234.01 911.119 1239.91 908.245C1275.26 890.845 1294.74 864.068 1305.93 836.529C1309.36 827.944 1312.23 819.146 1314.53 810.19C1320.57 787.327 1324.72 764.07 1330.1 741.839C1338.75 706.131 1355.65 674.183 1387.8 645.791C1409.76 626.404 1443.27 609.291 1483.28 605.485C1540.27 600.066 1592.11 616.355 1640.93 626.768C1644.77 627.59 1648.64 628.38 1652.53 629.138C1711.28 640.577 1772.9 644.238 1831.17 632.788C1893.25 620.606 1950.77 588.153 1962.34 544.861" stroke="#D2D2D2" stroke-miterlimit="10"/>
<path d="M313.83 901.327C347.11 872.318 385.177 845.553 426.854 821.3C445.337 810.524 464.896 800.1 487.833 793.113C533.785 779.13 585.599 780.947 633.933 788.513C647.219 790.583 660.25 793.063 672.845 795.781C725.158 807.116 776.401 822.922 826.01 843.023C873.344 862.331 916.81 886.204 969.856 902.557C1013.33 915.971 1060.38 927.679 1108.4 932.293C1149.59 936.211 1192.83 934.015 1229 921.58C1235.39 919.4 1241.64 916.841 1247.72 913.917C1284.22 896.217 1304.09 868.761 1315.84 840.526C1319.42 831.721 1322.49 822.716 1325.03 813.555C1331.63 790.171 1336.73 766.345 1343.38 743.655C1354.08 707.141 1374.08 675.02 1408.79 646.596C1435.63 624.932 1468.2 611.554 1502.51 608.096C1557.84 602.566 1608.45 617.102 1655.93 625.855C1659.67 626.555 1663.44 627.198 1667.23 627.83C1724.34 637.278 1783.37 638.937 1838.39 626.424C1897.04 613.124 1950.41 580.841 1960.06 538.75" stroke="#CDCDCD" stroke-miterlimit="10"/>
<path d="M323.123 912.687C355.661 884.231 393.19 858.098 434.381 834.587C452.659 824.143 471.962 814.063 494.439 807.221C539.439 793.491 590.004 794.534 637.466 801.043C650.522 802.843 663.373 805.009 675.815 807.426C727.541 817.556 778.317 832.049 827.597 850.75C874.697 868.75 918.221 891.261 970.445 906.95C1015.25 920.427 1063.25 932.578 1112.45 937.57C1154.58 941.82 1199.05 939.845 1236.25 927.332C1242.82 925.138 1249.26 922.547 1255.52 919.574C1293.18 901.594 1313.46 873.454 1325.74 844.492C1329.5 835.474 1332.76 826.261 1335.52 816.892C1342.72 792.971 1348.76 768.607 1356.67 745.444C1369.44 708.124 1392.41 675.798 1429.78 647.373C1456.53 627.032 1488.31 614.346 1521.71 610.673C1575.37 605.032 1624.73 617.83 1670.88 624.909C1674.52 625.462 1678.18 625.999 1681.84 626.489C1737.29 633.931 1793.76 633.615 1845.55 620.043C1900.75 605.602 1949.97 573.512 1957.71 532.622" stroke="#C7C7C7" stroke-miterlimit="10"/>
<path d="M332.416 924.031C364.237 896.131 401.203 870.643 441.882 847.843C459.93 837.731 479.002 828.014 500.992 821.283C545.024 807.821 594.355 808.058 640.947 813.541C653.798 815.058 666.447 816.922 678.707 819.055C729.845 827.959 780.146 841.135 829.082 858.444C875.982 875.129 919.527 896.253 970.906 911.311C1017.06 924.836 1066.01 937.429 1116.36 942.816C1159.45 947.382 1205.17 945.66 1243.39 933.052C1250.17 930.842 1256.8 928.214 1263.26 925.184C1302.04 906.903 1322.73 878.1 1335.6 848.428C1339.53 839.197 1342.98 829.774 1345.95 820.193C1353.7 795.75 1360.69 770.818 1369.88 747.193C1384.7 709.068 1410.58 676.488 1450.68 648.111C1473.38 632.042 1504.33 617.238 1540.81 613.193C1592.81 607.442 1640.91 618.502 1685.76 623.905C1689.29 624.332 1692.85 624.727 1696.41 625.09C1750.2 630.541 1804.11 628.218 1852.65 613.59C1904.39 598.027 1949.49 566.111 1955.3 526.421" stroke="#C2C2C2" stroke-miterlimit="10"/>
<path d="M341.708 935.392C372.786 908.042 409.215 883.205 449.408 861.132C467.226 851.332 486.067 841.982 507.597 835.378C550.682 822.185 598.784 821.616 644.48 826.072C657.101 827.305 669.542 828.872 681.68 830.701C732.237 838.391 782.07 850.255 830.668 866.172C877.362 881.545 920.959 901.295 971.468 915.705C1019.01 929.261 1068.85 942.328 1120.38 948.095C1164.42 952.995 1211.36 951.508 1250.61 938.82C1257.58 936.592 1264.4 933.933 1271.04 930.857C1310.98 912.276 1332.07 882.793 1345.48 852.426C1349.73 842.82 1353.22 833.103 1356.42 823.559C1364.74 798.595 1372.75 773.125 1383.14 749.015C1400.14 710.1 1428.68 677.188 1471.64 648.922C1494.45 633.912 1524.71 619.913 1560.01 615.805C1610.34 609.943 1657.19 619.265 1700.73 622.994C1704.16 623.294 1707.62 623.547 1711.05 623.784C1763.17 627.244 1814.53 622.931 1859.84 607.241C1908.12 590.556 1949.08 558.814 1953 520.325" stroke="#BCBCBC" stroke-miterlimit="10"/>
<path d="M351.001 946.755C381.363 919.955 417.228 895.755 456.908 874.423C474.521 864.959 493.108 855.953 514.175 849.491C556.287 836.567 603.161 835.191 647.986 838.605C660.376 839.553 672.639 840.833 684.594 842.35C734.576 848.822 783.944 859.375 832.204 873.902C878.694 887.964 922.342 906.308 972.004 920.102C1020.9 933.69 1071.67 947.231 1124.38 953.377C1169.35 958.591 1217.53 957.359 1257.83 944.577C1264.99 942.335 1272 939.644 1278.82 936.519C1319.91 917.654 1341.39 887.492 1355.36 856.413C1359.76 846.585 1363.45 836.663 1366.86 826.913C1375.74 801.413 1384.73 775.389 1396.35 750.82C1415.42 711.099 1446.63 677.808 1492.55 649.72C1515.43 635.72 1545 622.576 1579.13 618.404C1627.79 612.432 1673.39 620.016 1715.63 622.07C1718.96 622.228 1722.31 622.37 1725.64 622.465C1776.12 623.934 1824.89 617.614 1866.98 600.865C1911.83 583.058 1948.64 551.49 1950.61 514.202" stroke="#B7B7B7" stroke-miterlimit="10"/>
<path d="M360.268 958.117C389.913 931.873 425.215 908.317 464.409 887.717C481.791 878.569 500.147 869.926 520.729 863.59C561.894 850.934 607.513 848.754 651.443 851.14C663.629 851.804 675.661 852.783 687.462 854C736.872 859.239 785.775 868.481 833.689 881.634C879.974 894.369 923.699 911.306 972.467 924.499C1022.75 938.087 1074.41 952.117 1128.29 958.659C1174.19 964.189 1223.63 963.193 1264.97 950.348C1272.33 948.077 1279.53 945.355 1286.55 942.195C1328.77 923.03 1350.68 892.188 1365.22 860.414C1369.8 850.381 1373.67 840.237 1377.31 830.284C1386.78 804.261 1396.68 777.684 1409.59 752.643C1430.71 712.116 1464.5 678.351 1513.5 650.528C1536.41 637.509 1565.34 625.264 1598.31 621.014C1645.31 614.931 1689.65 620.761 1730.59 621.156C1733.81 621.187 1737.04 621.187 1740.26 621.156C1789.08 620.619 1835.26 612.324 1874.12 594.517C1915.52 575.589 1948.19 544.194 1948.26 508.107" stroke="#B1B1B1" stroke-miterlimit="10"/>
<path d="M369.561 969.456C398.461 943.781 433.228 920.839 471.935 900.963C489.087 892.147 507.212 883.852 527.335 877.642C567.527 865.255 611.943 862.253 654.977 863.627C666.932 864.006 678.785 864.686 690.433 865.602C739.274 869.601 787.712 877.532 835.278 889.318C881.358 900.741 925.134 916.257 973.057 928.85C1024.74 942.438 1077.28 956.974 1132.34 963.894C1179.19 969.756 1229.88 968.994 1272.22 956.057C1279.76 953.773 1287.16 951.018 1294.36 947.809C1337.73 928.359 1360.03 896.838 1375.13 864.338C1379.89 854.084 1383.94 843.738 1387.78 833.575C1397.81 807.015 1408.67 779.887 1422.85 754.385C1446.02 713.052 1482.29 678.735 1534.46 651.243C1557.4 639.156 1585.72 627.843 1617.49 623.514C1662.82 617.32 1705.91 621.414 1745.54 620.133C1748.66 620.038 1751.78 619.896 1754.91 619.733C1802.06 617.205 1845.68 606.903 1881.32 588.038C1919.26 567.972 1947.8 536.767 1945.96 501.881" stroke="#ABABAB" stroke-miterlimit="10"/>
<path d="M378.854 980.817C407.04 955.695 441.216 933.401 479.436 914.252C496.383 905.768 514.252 897.82 533.913 891.752C573.158 879.633 616.319 875.826 658.483 876.173C670.208 876.268 681.856 876.647 693.35 877.263C741.615 880.015 789.581 886.636 836.787 897.063C882.637 907.175 926.515 921.253 973.542 933.263C1026.64 946.819 1080.04 961.893 1136.31 969.192C1184.11 975.37 1236.02 974.864 1279.41 961.845C1287.15 959.548 1294.73 956.762 1302.11 953.503C1346.61 933.753 1369.34 901.568 1384.98 868.357C1389.92 857.882 1394.15 847.311 1398.22 836.962C1408.82 809.881 1420.62 782.199 1436.08 756.224C1461.29 714.101 1499.95 679.088 1555.4 652.07C1578.31 640.899 1606.04 630.55 1636.63 626.142C1680.28 619.842 1722.13 622.192 1760.46 619.242C1763.48 619.005 1766.5 618.736 1769.49 618.452C1815.01 613.933 1856.05 601.641 1888.43 581.717C1922.91 560.529 1947.34 529.498 1943.57 495.817" stroke="#A6A6A6" stroke-miterlimit="10"/>
<path d="M388.147 992.177C415.616 967.608 449.227 945.942 486.963 927.542C504.225 918.93 522.13 911.675 540.518 905.842C578.818 893.992 620.718 889.363 662.018 888.683C673.512 888.493 684.981 888.572 696.318 888.904C744.015 890.411 791.517 895.716 838.372 904.767C884.017 913.567 927.972 926.192 974.103 937.615C1028.6 951.124 1082.9 966.734 1140.32 974.429C1189.07 980.939 1242.21 980.67 1286.65 967.556C1294.59 965.237 1302.37 962.419 1309.95 959.119C1355.6 939.069 1378.72 906.205 1394.95 872.298C1400.04 861.617 1404.47 850.826 1408.75 840.271C1419.93 812.653 1432.68 784.434 1449.37 757.985C1476.66 715.056 1517.6 679.238 1576.37 652.82C1599.28 642.52 1626.39 633.165 1655.83 628.693C1697.82 622.278 1738.42 622.893 1775.43 618.265C1778.35 617.902 1781.27 617.507 1784.16 617.08C1828.02 610.555 1866.49 596.271 1895.65 575.289C1926.7 552.979 1946.95 522.122 1941.27 489.637" stroke="#A0A0A0" stroke-miterlimit="10"/>
<path d="M397.44 1003.52C424.166 979.505 457.24 958.491 494.464 940.795C511.479 932.591 529.06 925.616 547.072 919.923C584.397 908.323 625.072 902.859 665.498 901.2C676.788 900.71 688.052 900.5 699.213 900.536C746.346 900.783 793.385 904.777 839.885 912.48C885.325 919.969 929.357 931.124 974.618 941.994C1030.55 955.44 1085.7 971.619 1144.3 979.694C1193.99 986.52 1248.36 986.488 1293.83 973.294C1301.95 970.966 1309.92 968.116 1317.68 964.762C1364.48 944.427 1388.01 910.884 1404.78 876.262C1410.05 865.362 1414.66 854.362 1419.16 843.603C1430.91 815.463 1444.61 786.676 1462.58 759.768C1491.92 716.034 1535.05 679.268 1597.29 653.592C1622.24 643.204 1648.3 635.708 1674.96 631.251C1715.28 624.726 1754.63 623.604 1790.34 617.3C1793.15 616.794 1795.97 616.273 1798.76 615.7C1840.95 607.184 1876.86 590.91 1902.77 568.869C1930.37 545.438 1946.5 514.754 1938.89 483.469" stroke="#9B9B9B" stroke-miterlimit="10"/>
<path d="M406.707 1014.88C432.717 991.418 465.229 971.036 501.965 954.081C518.737 946.27 536.002 939.567 553.651 934.015C590.029 922.686 629.451 916.415 669.005 913.728C680.064 912.954 691.123 912.464 702.157 912.18C748.726 911.158 795.303 913.841 841.447 920.206C886.682 926.368 930.791 936.069 975.156 946.387C1032.53 959.738 1088.51 976.518 1148.29 984.97C1198.93 992.127 1254.56 992.333 1301.04 979.061C1309.36 976.708 1317.52 973.827 1325.47 970.434C1373.39 949.799 1397.33 915.576 1414.66 880.263C1420.11 869.156 1424.9 857.922 1429.61 846.972C1441.92 818.311 1456.56 788.972 1475.82 761.589C1507.2 717.049 1552.49 679.189 1618.23 654.402C1642.82 645.176 1668.22 638.299 1694.11 633.862C1732.76 627.242 1770.88 624.35 1805.26 616.387C1807.97 615.755 1810.66 615.087 1813.35 614.396C1853.9 603.889 1887.23 585.608 1909.91 562.509C1934.06 537.956 1946.04 507.446 1936.54 477.363" stroke="#959595" stroke-miterlimit="10"/>
<path d="M416 1026.24C441.267 1003.33 473.242 983.598 509.491 967.371C526.018 959.956 542.97 953.525 560.256 948.111C595.656 937.051 633.882 929.973 672.512 926.26C683.341 925.201 694.221 924.411 705.075 923.827C751.08 921.527 797.195 922.901 842.982 927.935C888.012 932.786 932.224 941.002 975.692 950.782C1034.52 964.007 1091.33 981.418 1152.28 990.25C1203.87 997.723 1260.72 998.182 1308.24 984.815C1316.75 982.447 1325.11 979.528 1333.25 976.078C1382.32 955.159 1406.67 920.257 1424.56 884.233C1430.19 872.904 1435.16 861.465 1440.1 850.311C1453 821.111 1468.57 791.235 1489.1 763.379C1522.56 718.033 1569.95 678.928 1639.22 655.179C1662.18 647.311 1687.42 641.149 1713.33 636.44C1750.32 629.709 1787.19 625.08 1820.26 615.44C1822.87 614.682 1825.46 613.892 1828.04 613.054C1866.93 600.554 1897.68 580.285 1917.13 556.127C1937.82 530.436 1945.68 500.116 1934.23 471.234" stroke="#909090" stroke-miterlimit="10"/>
<path d="M425.292 1037.6C482.354 985.652 576.383 951.318 676.018 938.789C775.653 926.26 880.28 934.349 976.204 955.174C1036.49 968.256 1094.12 986.299 1156.25 995.529C1218.38 1004.76 1288.29 1004.03 1341 981.751C1407 953.864 1428.99 901.203 1450.55 853.66C1485.95 775.482 1542.58 692.36 1660.13 655.97C1718.68 637.847 1787.21 633.297 1842.61 611.714C1919.41 581.789 1957.76 518.814 1931.85 465.09" stroke="#8A8A8A" stroke-miterlimit="10"/>
<path d="M-676.429 -96.633C-627.354 -125.642 -575.437 -152.833 -521.088 -178.019C-496.922 -189.205 -471.629 -200.219 -442.522 -205.211C-368.128 -217.993 -292.352 -188.842 -235.422 -156.642C-182.968 -126.985 -136.273 -93.474 -96.622 -57.023C-57.322 -20.904 -24.1741 18.627 27.6659 48.094C79.5319 77.561 157.509 95.115 221.509 76.866C259.576 66.011 287.122 43.955 302.226 19.812C317.33 -4.331 321.247 -30.574 322.143 -56.455C323.167 -86.08 321.043 -117.348 343.98 -143.387C367.737 -170.326 418.348 -187.311 467.91 -184.941C538.41 -181.576 590.41 -144.967 641.734 -114.963C706.963 -76.838 786.451 -44.953 875.59 -38.096C964.729 -31.239 1063.78 -54.46 1105.69 -103.49" stroke="#8A8A8A" stroke-miterlimit="10"/>
<path d="M-670.618 -84.435C-621.052 -113.685 -569.968 -140.282 -517.581 -164.115C-493.722 -175.015 -468.762 -185.682 -440.167 -190.615C-382.721 -200.506 -324.378 -185.575 -274.561 -163.802C-260.993 -157.877 -248.039 -151.446 -235.931 -144.858C-183.809 -116.558 -137.192 -84.376 -97.331 -49.252C-57.856 -14.46 -24.5761 23.902 26.9309 52.448C55.8079 68.469 91.831 81.267 129.357 87.082C162.048 92.138 196.045 91.79 226.919 83.322C232.419 81.805 237.748 80.067 242.842 78.108C274.253 66.068 297.042 46.224 310.784 24.815C315.059 18.1499 318.71 11.1047 321.69 3.76897C329.29 -14.843 332.621 -34.198 334.644 -53.222C337.921 -83.416 339.585 -114.522 364.366 -140.28C388.966 -165.86 437.608 -182.419 486.017 -180.27C554.907 -177.205 606.183 -142.445 656.717 -114.226C660.711 -111.998 664.73 -109.802 668.826 -107.637C730.598 -74.815 803.763 -48.615 884.505 -43.592C970.598 -38.236 1065.5 -61.73 1105.18 -109.81" stroke="#909090" stroke-miterlimit="10"/>
<path d="M-664.807 -72.222C-616.058 -101.012 -565.735 -127.049 -514.074 -150.211C-490.548 -160.811 -465.895 -171.162 -437.812 -176.011C-381.364 -185.744 -324.02 -171.745 -274.791 -151.079C-261.351 -145.454 -248.525 -139.34 -236.468 -133.067C-184.679 -106.113 -138.138 -75.272 -98.1 -41.472C-58.417 -8.01103 -24.935 29.167 26.163 56.828C59.1586 74.4739 94.8222 86.5951 131.737 92.71C165.247 98.193 200.422 98.21 232.319 89.771C237.909 88.305 243.42 86.5541 248.831 84.525C281.445 72.325 304.818 51.866 319.331 29.825C323.832 22.9766 327.731 15.7505 330.983 8.22797C339.303 -10.843 343.706 -30.624 347.111 -49.979C352.641 -80.726 358.017 -111.662 384.692 -137.179C410.036 -161.416 456.782 -177.548 504.065 -175.605C571.342 -172.824 621.902 -139.929 671.643 -113.495C675.56 -111.41 679.526 -109.35 683.543 -107.317C744.268 -76.646 815.483 -52.693 893.362 -49.072C976.383 -45.201 1067.16 -68.996 1104.61 -116.096" stroke="#959595" stroke-miterlimit="10"/>
<path d="M-658.97 -60.024C-611.051 -88.3615 -561.498 -113.839 -510.57 -136.324C-487.351 -146.624 -463.056 -156.659 -435.46 -161.43C-380.032 -171.003 -323.66 -157.936 -274.996 -138.393C-261.684 -133.068 -248.961 -127.27 -236.98 -121.313C-185.524 -95.701 -139.034 -66.203 -98.817 -33.734C-58.983 -1.56401 -25.242 34.413 25.395 61.207C59.484 79.1448 96.1557 91.6712 134.095 98.337C168.45 104.246 204.751 104.637 237.695 96.237C243.481 94.7713 249.189 93.01 254.795 90.96C288.613 78.589 312.595 57.511 327.883 34.838C332.598 27.7929 336.75 20.3866 340.3 12.688C349.34 -6.84101 354.84 -27.065 359.628 -46.736C367.41 -78.052 376.422 -108.767 405.094 -134.078C431.027 -156.972 476.032 -172.678 522.188 -170.924C587.878 -168.443 637.695 -137.396 686.642 -112.748C690.509 -110.805 694.409 -108.888 698.342 -106.997C758.016 -78.478 827.315 -56.769 902.297 -54.541C982.246 -52.155 1068.93 -76.234 1104.13 -122.37" stroke="#9B9B9B" stroke-miterlimit="10"/>
<path d="M-653.159 -47.811C-606.061 -75.6996 -557.266 -100.617 -507.059 -122.419C-484.147 -132.436 -460.185 -142.137 -433.101 -146.83C-378.701 -156.247 -323.328 -144.112 -275.201 -125.674C-262.043 -120.65 -249.422 -115.167 -237.492 -109.526C-186.369 -85.257 -139.956 -57.085 -99.559 -25.959C-59.546 4.88198 -25.519 39.622 24.652 65.57C59.8481 83.7866 97.5341 96.7232 136.498 103.964C171.672 110.284 209.125 111.058 243.122 102.684C249.106 101.218 255.01 99.4463 260.812 97.375C295.833 84.846 320.434 63.152 336.46 39.847C341.399 32.6076 345.797 25.0137 349.618 17.127C359.372 -2.86 365.951 -23.511 372.146 -43.513C382.181 -75.397 394.726 -105.878 425.471 -130.998C451.891 -152.578 495.281 -167.812 540.287 -166.278C604.364 -164.098 653.465 -134.899 701.618 -112.052C705.407 -110.252 709.247 -108.477 713.138 -106.727C771.788 -80.357 839.116 -60.891 911.231 -60.07C988.131 -59.185 1070.67 -83.549 1103.64 -128.705" stroke="#A0A0A0" stroke-miterlimit="10"/>
<path d="M-647.347 -35.613C-601.069 -63.0542 -553.032 -87.4127 -503.547 -108.53C-480.947 -118.247 -457.339 -127.63 -430.741 -132.246C-377.365 -141.521 -322.965 -130.303 -275.426 -112.97C-262.396 -108.262 -249.877 -103.079 -238.026 -97.755C-187.21 -74.829 -140.9 -48.001 -100.298 -18.202C-60.1061 11.328 -25.776 44.808 23.888 69.946C57.629 87.026 97.181 101.751 138.888 109.588C174.907 116.335 213.512 117.488 248.533 109.146C254.714 107.684 260.815 105.902 266.811 103.806C298.475 92.9532 325.866 72.3074 345.019 44.856C350.185 37.4292 354.83 29.6529 358.919 21.583C369.389 1.13799 376.993 -19.971 384.619 -40.274C396.8 -72.727 412.903 -102.968 445.823 -127.9C472.601 -148.2 514.482 -162.944 558.361 -161.617C620.825 -159.717 669.209 -132.371 716.569 -111.326C720.306 -109.667 724.078 -108.033 727.884 -106.426C785.484 -82.189 850.866 -64.983 920.114 -65.567C993.944 -66.167 1072.36 -90.815 1103.1 -135.024" stroke="#A6A6A6" stroke-miterlimit="10"/>
<path d="M-641.536 -23.4151C-597.709 -49.6431 -550.221 -73.4221 -500.045 -94.6261C-477.773 -104.043 -454.477 -113.096 -428.365 -117.647C-376.013 -126.764 -322.586 -116.462 -275.61 -100.247C-262.733 -95.8391 -250.317 -90.9881 -238.516 -85.9641C-188.058 -64.3971 -141.825 -38.9121 -101.044 -10.4241C-60.673 17.7949 -26.01 50.011 23.116 74.327C58.116 91.6439 98.534 106.875 141.26 115.233C178.124 122.406 217.86 123.923 253.926 115.612C260.306 114.158 266.604 112.364 272.793 110.24C305.446 99.2048 333.736 78.0586 353.564 49.866C358.957 42.2453 363.857 34.287 368.233 26.0399C379.42 5.13995 388.124 -16.3991 397.133 -37.0181C411.571 -70.0401 431.053 -100.028 466.202 -124.787C493.235 -143.827 533.734 -158.063 576.464 -156.941C637.315 -155.341 684.982 -129.841 731.549 -110.584C735.21 -109.067 738.922 -107.566 742.659 -106.113C799.209 -84.0251 862.646 -69.078 929.027 -71.053C999.785 -73.139 1074.08 -98.0871 1102.59 -141.316" stroke="#ABABAB" stroke-miterlimit="10"/>
<path d="M-635.725 -11.202C-592.768 -36.956 -546.025 -60.182 -496.563 -80.722C-474.598 -89.854 -451.663 -98.576 -426.035 -103.047C-374.707 -112.006 -322.278 -102.636 -275.835 -87.547C-263.086 -83.439 -250.773 -78.904 -239.048 -74.196C-188.898 -53.956 -142.741 -29.814 -101.781 -2.65402C-61.231 24.238 -26.21 55.174 22.353 78.7C58.628 96.254 99.87 111.975 143.646 120.854C181.329 128.454 222.238 130.354 259.358 122.071C265.935 120.618 272.429 118.816 278.814 116.671C317.465 103.648 343.833 80.089 362.137 54.889C367.75 47.0663 372.896 38.9188 377.548 30.489C389.448 9.12697 399.231 -12.85 409.648 -33.785C426.342 -67.371 449.105 -97.123 486.605 -121.692C513.792 -139.511 552.985 -153.197 594.585 -152.265C653.849 -150.954 700.799 -127.317 746.547 -109.842C750.157 -108.467 753.792 -107.109 757.453 -105.797C812.953 -85.857 874.445 -73.154 937.959 -76.535C1005.64 -80.122 1075.84 -105.335 1102.11 -147.603" stroke="#B1B1B1" stroke-miterlimit="10"/>
<path d="M-629.888 0.995956C-587.802 -24.304 -541.798 -46.957 -493.03 -66.833C-471.372 -75.665 -448.768 -84.071 -423.654 -88.463C-373.354 -97.263 -321.945 -88.779 -276.044 -74.843C-263.444 -71.019 -251.238 -66.817 -239.59 -62.424C-189.772 -43.543 -143.69 -20.724 -102.528 5.10497C-61.798 30.685 -26.394 60.31 21.581 83.078C59.136 100.869 101.197 117.095 146.023 126.478C184.551 134.489 226.586 136.764 264.756 128.532C271.531 127.086 278.223 125.271 284.801 123.097C324.66 109.92 351.643 85.746 370.689 59.897C376.53 51.8805 381.931 43.5522 386.868 34.949C399.489 13.149 410.368 -9.29104 422.168 -30.542C441.112 -64.702 467.068 -94.248 506.981 -118.58C534.246 -135.197 572.211 -148.297 612.685 -147.587C670.336 -146.576 716.57 -124.787 761.524 -109.098C765.057 -107.866 768.641 -106.649 772.25 -105.48C826.701 -87.689 886.25 -77.23 946.893 -82.017C1011.53 -87.089 1077.58 -112.606 1101.62 -153.907" stroke="#B7B7B7" stroke-miterlimit="10"/>
<path d="M-624.077 13.194C-582.887 -11.629 -537.597 -33.733 -489.523 -52.946C-468.173 -61.478 -445.927 -69.567 -421.297 -73.881C-372.017 -82.524 -321.585 -74.955 -276.247 -62.142C-263.78 -58.619 -251.671 -54.732 -240.1 -50.655C-192.545 -33.9556 -146.72 -12.684 -103.271 12.861C-62.362 37.13 -26.571 65.443 20.812 87.437C59.647 105.465 102.502 122.229 148.377 132.104C187.75 140.541 230.911 143.196 270.131 134.98C277.11 133.527 284.006 131.702 290.79 129.513C331.878 116.178 359.449 91.372 379.238 64.907C385.309 56.7007 390.957 48.1896 396.16 39.407C409.498 17.145 421.478 -5.71804 434.637 -27.301C455.837 -62.029 484.89 -91.401 527.337 -115.481C554.601 -130.949 591.437 -143.431 630.761 -142.926C686.799 -142.199 732.316 -122.275 776.451 -108.371C779.933 -107.281 783.44 -106.206 786.973 -105.179C840.373 -89.537 897.973 -81.321 955.754 -87.499C1017.32 -94.056 1079.25 -119.857 1101.03 -160.199" stroke="#BCBCBC" stroke-miterlimit="10"/>
<path d="M-618.266 25.407C-577.946 1.04295 -533.402 -20.476 -486.016 -39.041C-464.999 -47.273 -443.056 -55.047 -418.944 -59.281C-370.688 -67.766 -321.229 -61.126 -276.456 -49.438C-264.142 -46.215 -252.136 -42.644 -240.616 -38.884C-193.29 -23.429 -147.541 -3.50584 -103.989 20.616C-62.901 43.558 -26.677 70.544 20.094 91.795C60.209 110.044 103.883 127.329 150.782 137.726C190.974 146.59 235.313 149.608 275.556 141.439C282.735 140 289.829 138.164 296.804 135.939C339.095 122.446 367.255 97.024 387.812 69.911C394.312 61.311 400.1 52.547 405.476 43.841C419.53 21.121 432.586 -2.18404 447.153 -24.083C470.63 -59.36 502.681 -88.606 547.712 -112.401C574.874 -126.747 610.662 -138.582 648.858 -138.266C703.284 -137.839 748.084 -119.766 791.424 -107.666C794.854 -106.718 798.285 -105.786 801.741 -104.901C854.092 -91.403 909.744 -85.426 964.659 -93.014C1023.16 -101.072 1080.96 -127.158 1100.52 -166.514" stroke="#C2C2C2" stroke-miterlimit="10"/>
<path d="M-612.455 37.605C-573.005 13.7 -529.204 -7.25104 -482.509 -25.137C-461.799 -33.085 -440.215 -40.511 -416.589 -44.682C-369.331 -53.009 -320.896 -47.305 -276.659 -36.719C-264.473 -33.796 -252.569 -30.557 -241.126 -27.097C-194.031 -12.8874 -148.366 5.68994 -104.726 28.393C-63.459 50.023 -26.8 75.651 19.332 96.175C60.778 114.614 105.22 132.452 153.169 143.354C194.206 152.644 239.669 156.041 280.969 147.889C288.345 146.452 295.635 144.606 302.806 142.359C346.3 128.692 375.075 102.654 396.4 74.909C403.133 66.124 409.174 57.15 414.832 48.286C429.603 25.107 443.76 1.35996 459.709 -20.839C485.437 -56.689 520.409 -85.856 568.151 -109.303C595.185 -122.575 629.951 -133.703 667.018 -133.603C719.831 -133.477 763.918 -117.234 806.461 -106.933C809.815 -106.127 813.194 -105.333 816.573 -104.579C867.873 -93.235 921.584 -89.506 973.629 -98.496C1029.08 -108.039 1082.76 -134.409 1100.07 -172.803" stroke="#C7C7C7" stroke-miterlimit="10"/>
<path d="M-606.618 49.818C-568.039 26.386 -524.958 5.98797 -479.002 -11.237C-458.602 -18.884 -437.351 -25.994 -414.234 -30.086C-368 -38.27 -320.534 -33.486 -276.89 -24.003C-264.832 -21.396 -253.056 -18.457 -241.664 -15.313C-194.789 -2.35326 -149.201 14.8775 -105.472 36.163C-64.026 56.463 -26.931 80.735 18.56 100.548C61.342 119.18 106.542 137.571 155.571 148.994C197.453 158.711 244.071 162.471 286.387 154.366C293.957 152.924 301.443 151.072 308.813 148.82C353.513 134.995 382.874 108.34 404.967 79.964C411.956 70.974 418.228 61.826 424.141 52.788C439.629 29.151 454.963 4.99297 472.192 -17.554C500.3 -53.937 537.984 -83.137 588.492 -106.16C615.321 -118.389 649.164 -128.786 685.081 -128.896C736.307 -129.054 779.647 -114.676 821.401 -106.16C824.701 -105.496 828.001 -104.849 831.334 -104.232C881.612 -95.032 933.35 -93.567 982.528 -103.948C1034.91 -114.976 1084.47 -141.648 1099.55 -179.077" stroke="#CDCDCD" stroke-miterlimit="10"/>
<path d="M-600.807 62.015C-563.124 39.042 -520.756 19.229 -475.495 2.65401C-455.395 -4.69299 -434.509 -11.487 -411.879 -15.5C-366.669 -23.526 -320.179 -19.671 -277.095 -11.313C-265.165 -9.00599 -253.495 -6.38299 -242.177 -3.55499C-195.526 8.15827 -150.023 24.0432 -106.217 43.908C-64.591 62.915 -27.011 85.825 17.789 104.908C61.923 123.708 107.875 142.686 157.949 154.599C200.649 164.727 248.419 168.882 291.786 160.808C299.556 159.381 307.239 157.519 314.8 155.231C360.726 141.248 390.678 113.977 413.514 84.953C420.733 75.773 427.261 66.435 433.456 57.224C449.656 33.124 466.07 8.52402 484.707 -14.334C515.069 -51.274 555.491 -80.552 608.893 -103.083C635.493 -114.301 668.413 -123.939 703.203 -124.255C752.816 -124.713 795.44 -112.184 836.403 -105.455C839.629 -104.918 842.88 -104.428 846.131 -103.955C895.36 -96.892 945.152 -97.682 991.462 -109.469C1040.77 -121.998 1086.21 -148.937 1099.06 -185.404" stroke="#D2D2D2" stroke-miterlimit="10"/>
<path d="M-594.995 74.213C-558.182 51.698 -516.557 32.454 -471.987 16.543C-452.224 9.47997 -431.641 3.01795 -409.523 -0.916046C-365.337 -8.78405 -319.823 -5.86104 -277.299 1.39096C-265.523 3.39796 -253.952 5.70396 -242.688 8.21696C-196.243 18.6685 -150.813 33.2085 -106.931 51.667C-65.152 69.367 -27.11 90.883 17.024 109.29C62.515 128.266 109.21 147.81 160.333 160.229C203.879 170.783 252.775 175.302 297.191 167.26C305.157 165.834 313.036 163.961 320.791 161.651C367.921 147.51 398.461 119.607 422.065 89.9659C429.515 80.5969 436.273 71.053 442.75 61.666C459.672 37.113 477.182 12.086 497.201 -11.109C529.818 -48.616 572.925 -78.065 629.248 -99.982C655.59 -110.236 687.616 -119.068 721.28 -119.574C769.28 -120.317 811.187 -109.652 851.353 -104.706C854.527 -104.306 857.702 -103.963 860.876 -103.632C909.055 -98.718 956.902 -101.752 1000.32 -114.945C1046.55 -128.96 1087.87 -156.199 1098.49 -191.686" stroke="#D8D8D8" stroke-miterlimit="10"/>
<path d="M-589.184 86.426C-553.242 64.385 -512.358 45.694 -468.484 30.447C-449.024 23.684 -428.774 17.538 -407.168 13.683C-364.006 5.97298 -319.462 7.96299 -277.53 14.11C-265.882 15.816 -254.413 17.791 -243.23 20.003C-196.996 29.1907 -151.649 42.3862 -107.704 59.44C-65.72 75.809 -27.192 95.94 16.251 113.65C63.125 132.768 110.536 152.913 162.683 165.85C207.073 176.831 257.121 181.729 302.561 173.718C310.726 172.299 318.803 170.416 326.753 168.077C375.086 153.762 406.241 125.259 430.587 94.97C438.267 85.411 445.281 75.678 452.014 66.119C469.652 41.119 488.238 15.638 509.64 -7.87201C544.507 -45.934 590.203 -75.672 649.54 -96.889C675.626 -106.211 706.782 -114.189 739.294 -114.917C785.681 -115.96 826.872 -107.143 866.244 -103.983C869.344 -103.73 872.465 -103.525 875.588 -103.335C922.718 -100.57 968.619 -105.847 1009.17 -120.435C1052.36 -135.935 1089.55 -163.458 1097.92 -197.981" stroke="#DEDEDE" stroke-miterlimit="10"/>
<path d="M-583.347 98.624C-548.275 77.041 -508.134 58.919 -464.947 44.351C-445.798 37.889 -425.907 32.074 -404.787 28.282C-362.649 20.73 -319.078 21.788 -277.709 26.813C-266.189 28.219 -254.856 29.8727 -243.709 31.774C-197.671 39.6929 -152.397 51.5495 -108.387 67.213C-66.224 82.255 -27.187 100.993 15.543 118.026C63.799 137.27 111.927 158.032 165.124 171.477C210.334 182.885 261.534 188.146 308.024 180.167C316.385 178.746 324.658 176.852 332.805 174.495C382.341 160.022 414.111 130.887 439.199 99.966C447.109 90.217 454.38 80.295 461.399 70.566C479.754 45.112 499.441 19.2 522.225 -4.62601C559.335 -43.26 607.591 -73.394 670.003 -93.789C695.803 -102.226 726.093 -109.32 757.478 -110.253C802.252 -111.596 842.752 -104.612 881.305 -103.253C884.351 -103.142 887.398 -103.063 890.444 -103.032C936.524 -102.416 980.505 -109.932 1018.16 -125.926C1058.28 -142.926 1091.35 -170.735 1097.5 -204.294" stroke="#E3E3E3" stroke-miterlimit="10"/>
<path d="M-577.536 110.837C-543.36 89.728 -503.936 72.1739 -461.466 58.2549C-442.177 51.767 -422.46 46.6303 -402.458 42.882C-361.344 35.488 -318.746 35.614 -277.94 39.532C-266.574 40.622 -255.31 41.9809 -244.276 43.5609C-198.439 50.2038 -153.247 60.7166 -109.185 74.9869C-66.843 88.7169 -27.316 106.034 14.715 122.419C64.379 141.774 113.198 163.183 167.445 177.134C213.499 188.968 265.851 194.609 313.365 186.661C321.925 185.253 330.396 183.35 338.735 180.961C389.5 166.33 421.835 136.579 447.689 105.026C455.83 95.0879 463.331 84.9599 470.627 75.0529C489.699 49.1409 510.486 22.787 534.653 -1.35605C574.026 -40.556 624.765 -71.2241 690.301 -90.6561C715.85 -98.2241 745.264 -104.418 775.501 -105.556C818.688 -107.183 858.445 -102.064 896.201 -102.507C899.171 -102.539 902.166 -102.602 905.135 -102.712C950.165 -104.245 992.201 -114.012 1026.99 -131.405C1064.03 -149.891 1092.99 -177.983 1096.9 -210.579" stroke="#E9E9E9" stroke-miterlimit="10"/>
<path d="M-571.725 123.035C-538.419 102.384 -499.738 85.399 -457.959 72.143C-439.01 66.0091 -419.684 61.1061 -400.103 57.465C-360.013 50.213 -318.388 49.36 -278.145 52.235C-266.907 53.009 -255.771 54.068 -244.788 55.335C-199.14 60.6924 -154.02 69.8621 -109.902 82.748C-67.402 95.167 -27.342 111.048 13.998 126.783C65.098 146.233 114.58 168.29 169.876 182.747C216.75 194.992 270.254 201.012 318.817 193.112C327.574 191.707 336.241 189.792 344.775 187.377C396.743 172.577 429.69 142.205 456.289 110.02C464.66 99.892 472.417 89.575 479.995 79.494C499.784 53.124 521.646 26.343 547.195 1.86899C588.846 -37.884 642.017 -69.231 710.728 -87.575C736.021 -94.322 764.539 -99.551 793.646 -100.894C835.22 -102.822 874.26 -99.551 911.227 -101.779C914.145 -101.953 917.064 -102.158 919.957 -102.411C963.938 -106.092 1004.03 -118.116 1035.95 -136.902C1069.95 -156.889 1094.75 -185.266 1096.44 -216.882" stroke="#EEEEEE" stroke-miterlimit="10"/>
<path d="M-565.914 135.232C-533.479 115.04 -495.54 98.623 -454.452 86.032C-435.844 80.2582 -416.911 75.589 -397.752 72.049C-358.661 64.955 -318.034 63.169 -278.379 64.923C-267.269 65.397 -256.261 66.14 -245.329 67.088C-199.873 71.1478 -154.833 78.9747 -110.673 90.488C-67.973 101.611 -27.396 116.052 13.205 131.141C65.736 150.654 115.887 173.39 172.232 188.369C219.95 201.041 274.581 207.44 324.194 199.555C333.147 198.147 342.011 196.222 350.741 193.788C403.912 178.825 437.448 147.842 464.815 115.025C473.415 104.708 481.429 94.201 489.263 83.946C509.769 57.118 532.732 29.894 559.663 5.10397C603.563 -35.218 659.17 -67.402 731.055 -84.482C757.538 -90.7603 784.522 -94.6938 811.695 -96.237C851.657 -98.449 889.98 -97.043 926.127 -101.056C928.969 -101.372 931.836 -101.72 934.677 -102.099C977.634 -107.929 1015.75 -122.199 1044.81 -142.389C1075.73 -163.861 1096.44 -192.522 1095.88 -223.174" stroke="#F4F4F4" stroke-miterlimit="10"/>
<path d="M-560.077 147.446C-528.512 127.728 -491.315 111.864 -450.919 99.951C-432.652 94.5339 -414.108 90.0982 -395.367 86.663C-357.297 79.727 -317.645 77.009 -278.554 77.655C-267.597 77.829 -256.683 78.2397 -245.812 78.887C-200.539 81.6511 -155.57 88.1353 -111.361 98.274C-68.507 108.054 -27.419 121.058 12.492 135.515C66.482 155.075 117.273 178.507 174.668 193.991C223.231 207.091 279.014 213.852 329.65 206.015C338.801 204.611 347.861 202.675 356.786 200.215C411.16 185.094 445.311 153.479 473.445 120.03C482.277 109.523 490.545 98.83 498.635 88.383C519.857 61.096 543.921 33.431 572.235 8.32401C618.393 -32.545 676.429 -65.728 751.513 -81.386C777.367 -86.5895 803.55 -89.9946 829.875 -91.577C868.224 -94.089 905.83 -94.532 941.184 -100.33C943.974 -100.788 946.765 -101.278 949.53 -101.799C991.437 -109.778 1027.61 -126.289 1053.8 -147.888C1081.65 -170.845 1098.24 -199.807 1095.45 -229.495" stroke="#F9F9F9" stroke-miterlimit="10"/>
<path d="M-554.266 159.647C-482.966 114.901 -380.442 91.596 -278.784 90.347C-177.126 89.115 -76.5701 108.722 11.6989 139.88C67.1739 159.456 118.579 183.63 176.999 199.62C235.419 215.61 304.385 222.688 362.753 206.635C435.814 186.547 472.857 137.192 507.904 92.841C565.58 19.893 645.555 -55.568 771.844 -78.289C834.744 -89.602 903.479 -86.442 964.254 -101.499C1048.55 -122.371 1104.64 -180.057 1094.86 -235.783" stroke="white" stroke-miterlimit="10"/>
<path d="M-108.441 807.428C-119.219 753.708 -33.279 708.315 53.377 699.956C140.033 691.614 226.971 708.836 312.833 719.88C398.695 730.924 495.31 734.574 567.041 703.416C658.739 663.584 679.959 579.8 774.298 542.383C847.821 513.216 943.54 521.954 1018.88 543.647C1061.48 555.908 1097.7 576.547 1138.41 590.921C1323.03 656.112 1335.5 789.306 1492.35 809.182C1662.21 830.682 1754.37 779.573 1786.42 744.133C1827.48 698.724 1895.94 580.919 1728.18 499.043C1660.03 465.784 1592.73 430.329 1542.61 386.531C1467.55 320.961 1468.06 220.726 1564.03 166.531C1629.82 129.401 1730.87 115.831 1775.57 68.208C1805.6 36.213 1801.5 -5.04097 1775.67 -38.426C1749.84 -71.8 1704.86 -98.2 1656.01 -119.59" stroke="#8A8A8A" stroke-miterlimit="10"/>
<path d="M-104.55 810.113C-111.974 754.845 -26.521 707.097 62.72 697.601C149.837 688.326 238.208 705.422 324.07 717.601C408.934 729.641 503.142 735.107 574.643 706.794C665.984 670.549 691.661 591.012 785.869 554.087C860.928 524.825 955.111 530.276 1032.24 549.236C1076.56 560.136 1115.83 579.572 1158.45 594.155C1339.21 655.965 1354.09 784.845 1507.53 804.437C1672.58 825.467 1764.25 777.103 1797.55 742.217C1839.77 698.009 1905.07 584.501 1746.55 503.558C1681.2 470.188 1616.4 434.058 1567.07 390.525C1494.21 326.519 1493.55 229.839 1584.15 176.119C1646.84 138.957 1744.25 123.819 1788.75 76.819C1819.29 44.698 1817.42 4.02802 1794.84 -29.594C1772.08 -63.532 1730.53 -91.419 1683.58 -114.394" stroke="#909090" stroke-miterlimit="10"/>
<path d="M-100.659 812.784C-104.759 755.984 -19.759 705.884 72.064 695.216C159.616 685.041 249.421 701.963 335.309 715.316C419.174 728.349 511.001 735.628 582.274 710.147C673.231 677.504 703.26 602.075 797.493 565.782C873.96 536.331 966.837 538.543 1045.68 554.817C1091.76 564.329 1134 582.609 1178.57 597.382C1355.29 655.968 1372.72 780.362 1522.77 799.682C1683.02 820.238 1774.16 774.607 1808.74 740.29C1852.09 697.298 1914.29 588.01 1765.02 508.077C1702.45 474.577 1640.14 437.783 1591.61 394.538C1520.98 332.081 1519.13 238.938 1604.33 185.738C1663.93 148.529 1757.7 131.844 1802.01 85.471C1833.06 53.207 1833.42 13.107 1814.12 -20.737C1794.41 -55.26 1756.32 -84.637 1711.26 -109.17" stroke="#959595" stroke-miterlimit="10"/>
<path d="M-96.771 815.47C-97.536 757.12 -13.03 704.712 81.408 692.842C169.421 681.782 260.659 698.498 346.547 713.019C429.389 727.019 518.835 736.166 589.875 713.509C680.475 684.453 714.905 613.242 809.062 577.487C887.014 547.894 978.585 546.787 1059.05 560.407C1106.95 568.512 1152.08 585.655 1198.65 600.634C1371.16 656.124 1391.34 775.903 1537.97 794.958C1693.44 815.04 1784.04 772.143 1819.91 738.394C1864.32 696.587 1923.51 591.454 1783.43 512.612C1723.6 478.942 1664 441.449 1616.11 398.552C1547.96 337.532 1544.66 248.01 1624.51 195.352C1681.01 158.08 1770.96 139.799 1815.25 94.106C1846.69 61.669 1849.45 22.153 1833.35 -11.88C1816.71 -47.019 1782.05 -77.829 1738.91 -103.947" stroke="#9B9B9B" stroke-miterlimit="10"/>
<path d="M-92.877 818.156C-90.317 758.256 -6.27702 703.556 90.752 690.492C179.226 678.579 271.872 695.042 357.786 710.763C439.629 725.726 526.669 736.722 597.504 716.909C687.718 691.439 726.579 624.432 820.685 589.229C900.122 559.493 990.464 555.022 1072.49 566.05C1122.23 572.733 1170.23 588.77 1218.76 603.923C1386.96 656.442 1409.99 771.498 1553.23 790.268C1703.91 809.86 1793.92 769.712 1831.12 736.532C1876.61 695.926 1932.8 594.853 1801.88 517.196C1744.79 483.337 1687.81 445.227 1640.63 402.614C1574.78 343.114 1570.2 257.096 1644.67 205.003C1698.1 167.636 1784.35 147.854 1828.48 102.777C1860.38 70.197 1865.5 31.203 1852.57 -3.00398C1839.05 -38.791 1807.77 -71.004 1766.53 -98.704" stroke="#A0A0A0" stroke-miterlimit="10"/>
<path d="M-88.986 820.842C-83.072 759.412 0.486038 702.405 100.096 688.122C189.03 675.376 283.084 691.566 369.024 708.476C449.869 724.387 534.579 737.343 605.107 720.276C695.04 698.519 738.253 635.62 832.281 600.923C913.228 571.061 1002.37 563.161 1085.88 571.63C1137.51 576.86 1188.3 591.822 1238.84 607.148C1402.57 656.823 1428.61 767.012 1568.41 785.514C1714.3 804.632 1803.75 767.214 1842.25 734.606C1888.79 695.185 1942.04 598.078 1820.26 521.717C1765.91 487.636 1711.51 448.926 1665.1 406.617C1601.54 348.647 1595.67 266.076 1664.79 214.6C1715.12 177.107 1797.68 155.84 1841.69 111.41C1874.07 78.7 1881.55 40.196 1871.77 5.83103C1861.38 -30.635 1833.45 -64.242 1794.16 -93.504" stroke="#A6A6A6" stroke-miterlimit="10"/>
<path d="M-85.095 823.512C-75.855 760.533 7.24504 701.268 109.439 685.736C198.839 672.164 294.322 688.059 380.287 706.181C460.133 723.024 542.437 737.876 612.761 723.64C702.31 705.486 749.977 646.789 843.903 612.629C926.335 582.641 1014.32 571.265 1099.31 577.221C1152.84 580.981 1206.4 594.901 1258.96 610.385C1418.16 657.311 1447.27 762.555 1583.67 780.772C1724.75 799.416 1813.6 764.735 1853.44 732.693C1901 694.457 1951.41 601.206 1838.69 526.235C1787.06 491.886 1735.27 452.635 1689.62 410.611C1628.34 354.173 1621.17 275 1684.96 224.187C1732.22 186.551 1811.09 163.831 1854.92 120.018C1887.79 87.17 1897.67 49.139 1890.99 14.664C1883.77 -22.482 1859.17 -57.463 1821.77 -88.305" stroke="#ABABAB" stroke-miterlimit="10"/>
<path d="M-81.204 826.198C-68.634 761.687 14.028 700.162 118.783 683.382C208.639 668.988 305.535 684.551 391.525 703.922C470.373 721.665 550.271 738.461 620.363 727.022C709.553 712.486 761.649 658.008 855.499 624.354C939.441 594.239 1026.28 579.324 1112.7 582.832C1168.15 585.076 1224.44 598.016 1279.02 613.642C1433.59 657.914 1465.88 758.101 1598.84 776.05C1735.14 794.22 1823.38 762.257 1864.57 730.799C1913.13 693.748 1960.8 604.257 1857.1 530.787C1806.95 495.229 1759.18 456.431 1714.1 414.641C1655.06 359.736 1646.59 283.912 1705.08 233.81C1749.24 195.985 1824.46 171.858 1868.13 128.661C1901.49 95.671 1913.83 58.114 1910.19 23.512C1906.2 -14.345 1884.87 -50.688 1849.37 -83.088" stroke="#B1B1B1" stroke-miterlimit="10"/>
<path d="M-77.312 828.884C-61.412 762.824 20.788 699.055 128.128 681.012C218.47 665.828 316.774 681.028 402.765 701.631C480.615 720.275 558.106 738.998 627.965 730.387C716.771 719.453 773.347 669.194 867.065 636.061C952.518 605.836 1038.2 587.334 1126.09 588.424C1183.46 589.135 1242.46 601.124 1299.12 616.896C1448.98 658.608 1484.52 753.645 1614.07 771.325C1745.58 789.005 1833.18 759.775 1875.76 728.902C1925.27 693.02 1970.35 607.163 1875.53 535.32C1829.32 500.307 1782.73 460.112 1738.62 418.653C1681.84 365.296 1672.01 292.759 1725.25 243.415C1766.29 205.384 1837.87 179.852 1881.36 137.286C1915.21 104.169 1930.05 67.055 1929.41 32.358C1928.7 -6.20997 1910.6 -43.893 1877.01 -77.879" stroke="#B7B7B7" stroke-miterlimit="10"/>
<path d="M-73.421 831.554C-54.17 763.946 27.571 697.965 137.472 678.642C228.272 662.668 328.013 677.489 414.003 699.356C490.854 718.901 565.939 739.556 635.597 733.768C724.019 726.437 785.075 680.411 878.697 647.768C965.686 617.432 1050.22 595.296 1139.51 594.032C1198.83 593.179 1260.5 604.27 1319.22 620.149C1464.32 659.38 1503.13 749.203 1629.32 766.599C1756.04 783.805 1842.97 757.293 1886.95 727.004C1937.41 692.276 1980.04 609.958 1893.97 539.869C1850.5 504.461 1806.49 463.869 1763.12 422.68C1708.6 370.856 1697.36 301.573 1745.41 253.035C1783.32 214.752 1851.29 187.876 1894.61 145.943C1928.96 112.684 1946.32 76.0281 1948.65 41.2211C1951.26 1.94405 1936.31 -37.0979 1904.64 -72.6479" stroke="#BCBCBC" stroke-miterlimit="10"/>
<path d="M-69.53 834.24C-46.951 765.1 34.355 696.891 146.816 676.272C238.106 659.54 339.251 673.934 425.242 697.065C501.12 717.479 573.773 740.073 643.2 737.134C731.238 733.405 796.774 691.634 890.266 659.477C978.766 629.046 1062.14 603.229 1152.9 599.627C1214.13 597.194 1278.49 607.432 1339.29 623.39C1479.55 660.22 1521.74 744.734 1644.49 761.877C1766.42 778.609 1852.67 754.799 1898.08 725.126C1949.46 691.551 1989.78 612.646 1912.34 544.426C1871.64 508.56 1830.17 467.626 1787.59 426.716C1735.29 376.44 1722.59 310.349 1765.53 262.665C1800.27 224.097 1864.68 195.926 1907.79 154.593C1942.63 121.208 1962.6 84.993 1967.82 50.076C1973.81 10.086 1961.98 -30.299 1932.21 -67.424" stroke="#C2C2C2" stroke-miterlimit="10"/>
<path d="M-65.639 836.927C-39.732 766.237 41.139 695.848 156.159 673.902C247.935 656.396 350.514 670.379 436.479 694.79C511.385 716.057 581.579 740.626 650.828 740.515C738.457 740.373 808.498 702.864 901.887 671.2C991.922 640.674 1074.12 611.144 1166.31 605.235C1229.46 601.19 1296.49 610.623 1359.38 626.644C1494.76 661.135 1540.38 740.278 1659.72 757.152C1776.84 773.41 1862.42 752.286 1909.27 723.229C1961.57 690.792 1999.77 615.189 1930.8 548.971C1892.91 512.599 1853.9 471.377 1812.12 430.74C1762.02 382.029 1747.81 319.066 1785.7 272.282C1817.19 233.398 1878.12 203.947 1921.05 163.23C1956.4 129.702 1978.98 93.947 1987.07 58.93C1996.49 18.23 1987.74 -23.514 1959.88 -62.209" stroke="#C7C7C7" stroke-miterlimit="10"/>
<path d="M-61.748 839.612C-32.487 767.39 47.922 694.805 165.503 671.547C257.765 653.298 361.778 666.807 447.717 692.514C521.675 714.634 589.417 741.162 658.431 743.896C745.676 747.34 820.223 714.096 913.458 682.908C1005.03 652.288 1086.03 619.008 1179.7 610.828C1244.75 605.156 1314.43 613.828 1379.46 629.899C1509.91 662.115 1558.94 735.98 1674.93 752.428C1787.21 768.339 1872.13 749.774 1920.43 721.334C1973.6 690.018 2009.93 617.607 1949.2 553.506C1914.2 516.566 1877.6 475.122 1836.62 434.753C1788.74 387.59 1772.9 327.724 1805.84 281.904C1834.06 242.673 1891.53 211.973 1934.25 171.889C1970.12 138.235 1995.34 102.938 2006.27 67.7991C2019.14 26.3871 2013.44 -16.7009 1987.48 -56.9739" stroke="#CDCDCD" stroke-miterlimit="10"/>
<path d="M-57.831 842.282C-25.241 768.512 54.759 693.762 174.873 669.161C267.647 650.169 373.073 663.204 458.982 690.222C531.968 713.179 597.273 741.683 666.06 747.244C752.921 754.275 831.974 725.314 925.081 694.598C1018.19 663.898 1097.96 626.832 1193.11 616.42C1260.06 609.089 1332.38 617.068 1399.55 633.136C1525.04 663.124 1577.57 731.523 1690.14 747.686C1797.63 763.123 1881.83 747.228 1931.6 719.42C1985.64 689.226 2020.33 619.896 1967.61 558.039C1935.61 520.467 1901.28 478.865 1861.11 438.765C1815.44 393.165 1797.88 336.349 1825.99 291.509C1850.82 251.898 1904.94 219.998 1947.49 180.514C1983.87 146.734 2011.77 111.914 2025.49 76.6451C2041.88 34.5541 2039.16 -9.92296 2015.12 -51.762" stroke="#D2D2D2" stroke-miterlimit="10"/>
<path d="M-53.94 844.968C-18.023 769.668 61.567 692.751 184.217 666.791C277.503 647.057 384.358 659.591 470.217 687.947C542.281 711.742 605.103 742.22 673.686 750.626C760.163 761.244 843.721 736.564 936.675 706.326C1031.32 675.548 1109.83 634.673 1206.52 622.033C1275.34 613.043 1350.29 620.374 1419.67 636.395C1540.17 664.235 1596.23 727.071 1705.39 742.966C1808.1 757.929 1891.56 744.688 1942.81 717.528C1997.72 688.428 2031.02 622.112 1986.07 562.593C1957.19 524.357 1925.01 482.645 1885.64 442.793C1842.15 398.774 1822.79 344.959 1846.17 301.13C1867.52 261.109 1918.41 228.039 1960.73 189.155C1997.62 155.264 2028.23 120.899 2044.72 85.491C2064.66 42.72 2064.87 -3.13099 2042.75 -46.55" stroke="#D8D8D8" stroke-miterlimit="10"/>
<path d="M-50.048 847.654C-10.803 770.803 68.402 691.74 193.562 664.437C287.362 643.976 395.674 655.984 481.462 685.672C552.579 710.288 612.944 742.742 681.296 754.007C767.389 768.195 855.453 747.813 948.278 718.046C1044.48 687.189 1121.69 642.49 1219.92 627.638C1290.6 616.957 1368.2 623.704 1439.75 639.646C1555.23 665.368 1614.83 722.612 1720.58 738.238C1818.5 752.711 1901.19 742.138 1953.95 715.628C2009.71 687.615 2041.94 624.241 2004.46 567.128C1978.91 528.165 1948.65 486.39 1910.12 446.811C1868.8 404.356 1847.53 353.544 1866.3 310.741C1884.04 270.293 1931.83 236.07 1973.92 197.803C2011.34 163.786 2044.65 129.91 2063.93 94.345C2087.45 50.927 2090.58 3.66904 2070.35 -41.33" stroke="#DEDEDE" stroke-miterlimit="10"/>
<path d="M-46.157 850.325C-3.55698 771.925 75.243 690.725 202.931 662.052C297.241 640.88 407.014 652.352 492.723 683.382C562.944 708.804 620.8 743.248 688.947 757.373C774.681 775.136 867.225 759.064 959.897 729.736C1057.66 698.815 1133.57 650.246 1233.36 633.214C1305.86 620.827 1386.09 627.068 1459.86 642.868C1570.3 666.536 1633.48 718.123 1735.83 733.481C1828.97 747.464 1910.89 739.532 1965.16 713.699C2021.73 686.76 2053.2 626.293 2022.94 571.641C2000.92 531.904 1972.35 490.129 1934.67 450.803C1895.5 409.928 1872.18 362.103 1886.49 320.327C1900.49 279.452 1945.32 244.076 1987.2 206.409C2025.14 172.265 2061.18 138.896 2083.2 103.172C2110.31 59.106 2116.35 10.426 2098.05 -36.137" stroke="#E3E3E3" stroke-miterlimit="10"/>
<path d="M-42.266 853.011C3.66001 773.079 82.073 689.75 212.275 659.698C307.097 637.798 418.355 648.717 503.961 681.107C573.261 707.335 628.684 743.707 696.55 760.755C781.977 781.99 878.95 770.33 971.494 741.463C1070.82 710.479 1145.37 658.055 1246.74 638.826C1321.06 624.732 1403.93 630.515 1479.94 646.141C1585.34 667.787 1652.15 713.56 1751.04 728.775C1839.41 742.158 1920.54 736.975 1976.32 711.822C2033.72 685.942 2064.71 628.382 2041.34 576.195C2023.19 535.668 1995.98 493.924 1959.16 454.835C1922.14 415.54 1896.67 370.7 1906.63 329.952C1916.74 288.652 1958.75 252.121 2000.41 215.052C2038.88 180.798 2077.67 147.934 2102.39 112.02C2133.14 67.34 2142.05 17.223 2125.64 -30.92" stroke="#E9E9E9" stroke-miterlimit="10"/>
<path d="M-38.375 855.696C10.879 774.215 88.908 688.769 221.593 657.327C316.953 634.717 429.693 645.066 515.174 678.827C583.603 705.845 636.518 744.239 704.153 764.127C789.196 788.949 890.7 781.586 983.065 753.178C1083.96 722.147 1157.12 665.82 1260.13 644.442C1336.27 628.642 1421.72 634.042 1500.01 649.403C1600.36 669.09 1670.76 709.111 1766.22 724.058C1849.8 736.967 1930.14 734.375 1987.45 709.933C2045.67 685.111 2076.54 630.506 2059.72 580.752C2045.75 539.435 2019.58 497.723 1983.61 458.871C1948.72 421.171 1920.97 379.35 1926.73 339.581C1932.77 297.869 1972.17 260.186 2013.59 223.704C2052.63 189.339 2094.13 156.996 2121.57 120.893C2155.95 75.61 2167.71 24.023 2153.22 -25.684" stroke="#EEEEEE" stroke-miterlimit="10"/>
<path d="M-34.484 858.383C18.098 775.354 95.769 687.806 230.937 654.958C326.837 631.658 441.062 641.402 526.412 676.541C593.945 704.349 644.351 744.765 711.756 767.486C796.441 795.894 902.527 792.956 994.662 764.879C1097.22 733.927 1168.9 673.571 1273.52 650.029C1351.42 632.491 1439.51 637.629 1520.1 652.636C1615.41 670.379 1689.39 704.636 1781.45 719.312C1860.25 731.747 1939.79 731.747 1998.64 708.012C2057.68 684.217 2088.73 632.693 2078.16 585.262C2068.76 543.187 2043.19 501.475 2008.14 462.862C1975.37 426.762 1945.24 387.986 1946.9 349.162C1948.72 307.087 1985.77 268.234 2026.83 232.321C2066.51 197.893 2110.67 166.04 2140.8 129.716C2178.84 83.849 2193.43 30.792 2180.86 -20.495" stroke="#F4F4F4" stroke-miterlimit="10"/>
<path d="M-30.592 861.053C25.318 776.492 102.707 686.969 240.282 652.592C336.768 628.671 452.455 637.74 537.652 674.27C604.34 702.87 652.186 745.323 719.361 770.87C803.661 802.881 914.228 804.176 1006.23 776.59C1110.32 745.543 1180.6 681.332 1286.91 655.625C1366.58 636.349 1457.26 641.31 1540.17 655.878C1630.47 671.741 1708.01 700.178 1796.63 714.578C1870.64 726.523 1949.36 729.098 2009.78 706.109C2069.61 683.325 2101.15 635.056 2096.57 589.809C2092.21 547.054 2066.74 505.279 2032.64 466.901C2001.97 432.394 1969.38 396.749 1967.05 358.801C1964.47 316.425 1999.18 276.293 2040.07 240.98C2080.26 206.41 2127.18 175.141 2160.03 138.58C2201.73 92.144 2219.16 37.586 2208.49 -15.265" stroke="#F9F9F9" stroke-miterlimit="10"/>
<path d="M-26.701 863.739C32.563 777.629 109.517 685.91 249.651 650.218C346.624 625.518 463.897 634.039 548.915 671.99C614.733 701.362 660.07 745.855 727.015 774.248C810.957 809.848 925.978 815.407 1017.88 788.31C1123.48 757.168 1192.37 689.102 1300.35 661.231C1381.79 640.217 1475 645.131 1560.29 659.145C1645.57 673.16 1726.67 695.738 1811.89 709.879C1881.09 721.35 1959.04 726.485 2020.99 704.238C2081.64 682.466 2113.89 637.673 2115.02 594.381C2116.15 551.089 2090.34 509.108 2057.17 470.951C2028.57 438.04 1993.45 405.602 1987.23 368.456C1980.09 325.856 2012.6 284.356 2053.3 249.656C2094 214.956 2143.72 184.256 2179.25 147.477C2224.64 100.488 2244.89 44.429 2236.13 -10.001" stroke="white" stroke-miterlimit="10"/>
<path d="M988.258 1184.45C913.658 1155.98 910.178 1086.2 953.928 1039.28C997.678 992.35 1073.89 961.336 1141.63 926.939C1209.37 892.542 1274.49 848.366 1280.1 794.33C1287.24 725.268 1194.72 662.558 1206.58 593.73C1215.82 540.089 1286.81 499.515 1361.4 476.857C1403.59 464.043 1452.34 459.557 1495.98 448.97C1693.97 400.985 1870 478.453 1993.36 415.442C2126.95 347.221 2120.14 270.86 2095.46 233.24C2063.84 185.05 1957.96 78.289 1749.45 107.709C1664.74 119.654 1577.83 129.809 1491.12 126.495C1361.28 121.534 1235.02 58.476 1226.72 -21.646C1221.04 -76.551 1267.19 -133.668 1235.06 -185.002C1213.48 -219.493 1158.8 -243.367 1100.49 -251.852C1042.17 -260.337 980.658 -255.233 923.008 -245.136" stroke="white" stroke-miterlimit="10"/>
<path d="M994.074 1184.26C919.629 1153.21 912.874 1082.19 956.774 1033.31C999.628 985.589 1076.58 953.784 1145.77 920.114C1214.15 886.839 1280.07 844.938 1289.11 792.798C1300.56 726.153 1216.21 663.98 1228.62 595.519C1238.71 541.088 1304.58 499.186 1376.85 473.954C1418.37 459.465 1467.52 452.766 1512.65 441.39C1703.96 393.153 1876.02 466.749 1996.9 405.208C2126.87 338.99 2123.21 264.587 2100.02 226.719C2070.66 178.719 1968.21 76.172 1766.68 101.719C1683.61 112.258 1597.36 120.79 1511.5 117.25C1385.01 112.196 1262.52 51.951 1251.46 -25.281C1243.8 -78.717 1285.71 -135.059 1254.25 -185.904C1232.82 -220.727 1180.29 -245.296 1123.69 -255.504C1066.57 -265.804 1005.31 -263.309 946.892 -255.104" stroke="#FBFBFB" stroke-miterlimit="10"/>
<path d="M999.91 1184.07C925.593 1150.45 915.584 1078.19 959.641 1027.32C1001.65 978.826 1079.27 946.216 1149.95 913.272C1218.94 881.103 1285.68 841.493 1298.15 791.233C1313.9 727.022 1237.48 665.339 1250.66 597.256C1261.39 542.019 1322.37 498.727 1392.31 470.998C1433.19 454.787 1482.73 445.923 1529.32 433.742C1714 385.442 1882.04 454.977 2000.44 394.906C2126.8 330.695 2126.26 258.268 2104.6 220.126C2077.44 172.346 1978.42 73.946 1783.94 95.685C1702.43 104.802 1616.92 111.722 1531.9 107.962C1408.77 102.811 1290.01 45.346 1276.19 -28.977C1266.54 -80.959 1304.22 -136.512 1273.4 -186.882C1252.12 -222.021 1201.69 -247.333 1146.86 -259.23C1090.89 -271.38 1029.97 -271.443 970.727 -265.155" stroke="#F6F6F6" stroke-miterlimit="10"/>
<path d="M1005.72 1183.86C931.559 1147.68 918.322 1074.18 962.509 1021.33C1003.7 972.063 1081.96 938.646 1154.1 906.415C1223.71 875.336 1291.26 838.032 1307.16 789.669C1327.23 727.891 1258.85 666.713 1272.7 599.01C1284.17 542.967 1340.16 498.222 1407.77 468.06C1448.01 450.095 1497.93 439.114 1546.01 426.111C1724.16 377.889 1888.08 443.222 2003.99 384.62C2126.75 322.42 2129.33 251.963 2109.18 213.569C2084.22 166.011 1988.53 71.669 1801.19 89.669C1721.19 97.348 1636.5 102.53 1552.31 98.707C1432.55 93.256 1317.43 38.762 1300.94 -32.638C1289.27 -83.17 1322.55 -137.886 1292.57 -187.826C1271.3 -223.265 1223.12 -249.351 1170.05 -262.926C1115.24 -276.941 1054.62 -279.563 994.611 -275.171" stroke="#F2F2F2" stroke-miterlimit="10"/>
<path d="M1011.56 1183.67C937.524 1144.92 921.089 1070.21 965.377 1015.36C1005.75 965.335 1084.6 931.081 1158.28 899.591C1228.45 869.591 1296.88 834.606 1316.23 788.122C1340.6 728.761 1280.31 668.089 1294.8 600.765C1307.04 543.917 1357.98 497.665 1423.26 465.106C1462.86 445.356 1513.17 432.321 1562.73 418.464C1734.43 370.464 1894.18 431.452 2007.58 374.319C2126.73 314.105 2132.43 245.66 2113.82 206.981C2091.04 159.66 1998.6 69.3 1818.52 83.63C1740.01 89.871 1656.17 93.43 1572.79 89.413C1456.39 83.82 1344.9 32.122 1325.75 -36.339C1312.03 -85.445 1341.08 -139.339 1311.82 -188.809C1290.68 -224.564 1244.62 -251.456 1193.32 -266.671C1139.64 -282.582 1079.35 -287.717 1018.55 -285.236" stroke="#EEEEEE" stroke-miterlimit="10"/>
<path d="M1017.37 1183.48C943.487 1142.15 923.852 1066.25 968.217 1009.38C1007.82 958.618 1087.21 923.511 1162.42 892.764C1233.15 863.834 1302.58 831.207 1325.23 786.588C1354.08 729.688 1301.73 669.494 1316.83 602.534C1329.83 544.88 1375.69 497.053 1438.72 462.182C1477.68 440.631 1528.39 425.558 1579.39 410.848C1744.71 363.195 1900.18 419.712 2011.13 364.048C2126.66 305.841 2135.47 239.386 2118.4 200.423C2097.79 153.339 2008.5 66.881 1835.77 77.623C1758.66 82.41 1675.72 84.338 1593.19 80.151C1480.14 74.418 1372.21 25.501 1350.5 -39.99C1334.68 -87.69 1359.56 -140.73 1330.99 -189.742C1309.98 -225.813 1266.02 -253.527 1216.51 -270.354C1163.95 -288.208 1104.03 -295.824 1042.43 -295.239" stroke="#E9E9E9" stroke-miterlimit="10"/>
<path d="M1023.21 1183.29C949.452 1139.4 926.694 1062.28 971.106 1003.39C1009.97 951.887 1089.87 915.91 1166.62 885.922C1237.89 858.067 1308.24 827.778 1334.3 785.022C1367.48 730.575 1323.21 670.867 1338.91 604.286C1352.68 545.842 1393.43 496.386 1454.21 459.242C1492.48 435.842 1543.63 418.794 1596.11 403.231C1755.11 356.052 1906.25 407.971 2014.72 353.777C2126.64 297.577 2138.52 233.112 2123.03 193.877C2104.55 147.046 2018.38 64.377 1853.08 71.617C1777.35 74.935 1695.33 75.267 1613.67 70.89C1504 65.012 1399.52 18.861 1375.31 -43.66C1357.36 -89.97 1378.1 -142.16 1350.24 -190.679C1329.35 -227.066 1287.52 -255.649 1239.78 -274.04C1188.35 -293.85 1128.76 -303.913 1066.37 -305.24" stroke="#E5E5E5" stroke-miterlimit="10"/>
<path d="M1029.02 1183.1C955.418 1136.64 929.511 1058.33 973.952 997.422C1012.07 945.187 1092.43 908.322 1170.74 879.08C1242.55 852.267 1313.82 824.349 1343.28 783.475C1380.78 731.461 1344.64 672.259 1360.92 606.041C1375.49 546.791 1411.05 495.678 1469.62 456.304C1507.2 431.04 1558.81 412.064 1612.75 395.604C1765.51 348.994 1912.25 396.22 2018.23 343.496C2126.57 289.302 2141.47 226.845 2127.57 187.313C2111.18 140.735 2025.78 48.747 1870.29 65.606C1796.92 73.553 1714.87 66.191 1634.03 61.624C1527.71 55.624 1426.64 12.202 1400.02 -47.333C1379.92 -92.268 1396.56 -143.571 1369.37 -191.633C1348.61 -228.352 1308.91 -257.819 1262.93 -277.743C1212.63 -299.543 1153.36 -312.043 1090.2 -315.268" stroke="#E1E1E1" stroke-miterlimit="10"/>
<path d="M1034.86 1182.91C961.409 1133.87 932.355 1054.4 976.82 991.451C1014.25 938.489 1095.04 900.712 1174.91 872.251C1247.23 846.481 1319.43 820.933 1352.32 781.938C1394.15 732.373 1366.12 673.661 1382.99 607.822C1398.38 547.782 1428.69 494.963 1485.11 453.377C1521.97 426.217 1574.07 405.345 1629.44 387.977C1776 342.015 1918.29 384.469 2021.79 333.214C2126.52 281.027 2144.46 220.576 2132.17 180.76C2117.89 134.45 2035.81 44.912 1887.57 59.59C1815.32 66.747 1734.45 57.109 1654.45 52.369C1551.49 46.263 1453.72 5.546 1424.77 -50.97C1402.45 -94.546 1415.07 -144.964 1388.57 -192.554C1367.94 -229.589 1330.38 -259.973 1286.14 -281.413C1236.99 -305.239 1178.06 -320.123 1114.09 -325.274" stroke="#DCDCDC" stroke-miterlimit="10"/>
<path d="M1040.67 1182.71C967.348 1131.11 935.22 1050.43 979.687 985.446C1016.42 931.758 1097.6 893.063 1179.09 865.397C1251.92 840.67 1325.03 817.491 1361.36 780.361C1407.49 733.245 1387.63 675.038 1405.06 609.547C1421.24 548.701 1446.25 494.175 1500.6 450.409C1536.7 421.353 1589.33 398.617 1646.16 380.32C1786.6 335.1 1924.36 372.689 2025.37 322.903C2126.49 272.722 2147.46 214.294 2136.78 174.162C2124.55 128.121 2045.93 41.173 1904.85 53.545C1833.58 59.802 1754.06 48.015 1674.88 43.07C1575.27 36.845 1480.73 -1.154 1449.55 -54.685C1424.95 -96.903 1433.6 -146.436 1407.77 -193.551C1387.29 -230.902 1351.89 -262.234 1309.39 -285.159C1261.42 -311.024 1202.77 -328.293 1138 -335.34" stroke="#D8D8D8" stroke-miterlimit="10"/>
<path d="M1046.5 1182.52C973.337 1128.35 938.137 1046.5 982.553 979.478C1018.6 925.078 1100.16 885.452 1183.23 858.578C1256.55 834.862 1330.61 814.069 1370.39 778.835C1420.82 734.153 1409.13 676.451 1427.12 611.324C1444.15 549.688 1463.78 493.409 1516.06 447.494C1551.36 416.51 1604.58 391.973 1662.85 372.713C1797.22 328.313 1930.39 360.958 2028.95 312.641C2126.46 264.467 2150.42 208.061 2141.41 167.613C2131.2 121.856 2056.16 37.613 1922.15 47.549C1851.7 52.763 1773.67 38.97 1695.33 33.819C1599.08 27.483 1507.66 -7.81401 1474.33 -58.342C1447.37 -99.217 1452.16 -147.849 1426.97 -194.491C1406.65 -232.174 1373.42 -264.453 1332.61 -288.849C1285.86 -316.783 1227.44 -336.407 1161.91 -345.349" stroke="#D4D4D4" stroke-miterlimit="10"/>
<path d="M1052.31 1182.33C979.277 1125.58 941.031 1042.58 985.396 973.501C1020.8 918.391 1102.7 877.801 1187.38 851.746C1261.18 829.046 1336.17 810.646 1379.41 777.281C1434.14 735.032 1430.63 677.836 1449.14 613.088C1466.98 550.646 1481.19 492.613 1531.49 444.564C1565.95 411.653 1619.84 385.33 1679.49 365.106C1807.85 321.593 1936.39 349.227 2032.46 302.38C2126.36 256.212 2153.32 201.829 2145.97 161.08C2137.78 115.608 2066.23 49.848 1939.38 41.553C1869.7 36.987 1793.23 29.924 1715.71 24.568C1622.81 18.137 1534.39 -14.458 1499.06 -61.984C1469.7 -101.499 1470.64 -149.247 1446.14 -195.398C1425.94 -233.398 1394.94 -266.672 1355.8 -292.505C1310.29 -322.541 1252.12 -344.471 1185.77 -355.326" stroke="#CFCFCF" stroke-miterlimit="10"/>
<path d="M1058.15 1182.14C985.267 1122.83 944 1038.66 988.288 967.53C1023.05 911.709 1105.25 870.155 1191.58 844.906C1265.84 823.197 1341.8 807.223 1388.47 775.734C1447.48 735.918 1452.19 679.228 1471.23 614.843C1489.92 551.611 1498.65 491.793 1547.01 441.612C1580.6 406.757 1635.2 378.681 1696.23 357.461C1818.63 314.896 1942.63 337.585 2036.07 292.081C2126.52 248.031 2156.26 195.559 2150.61 154.495C2144.38 109.295 2075.7 46.455 1956.69 35.521C1888.1 29.221 1812.84 20.859 1736.19 15.281C1646.64 8.77098 1561.11 -21.119 1523.87 -65.678C1491.99 -103.819 1489.23 -150.698 1465.37 -196.378C1444.73 -235.911 1415.18 -270.098 1379.04 -296.234C1334.84 -328.37 1276.83 -352.624 1209.71 -365.374" stroke="#CBCBCB" stroke-miterlimit="10"/>
<path d="M1063.96 1181.95C991.206 1120.06 946.943 1034.74 991.129 961.541C1025.25 905.009 1107.76 862.459 1195.73 838.064C1270.46 817.335 1347.36 803.778 1397.48 774.164C1460.79 736.781 1473.72 680.612 1493.28 616.591C1512.85 552.57 1516.02 490.965 1562.48 438.667C1595.17 401.867 1650.55 372.086 1712.93 349.824C1829.44 308.254 1948.71 325.824 2039.64 281.805C2126.48 239.761 2159.14 189.312 2155.22 147.932C2150.95 103.013 2085.13 42.894 1973.98 29.495C1906.5 21.358 1832.44 11.795 1756.63 6C1670.43 -0.589 1587.67 -27.749 1548.66 -69.366C1514.16 -106.129 1507.81 -152.138 1484.6 -197.342C1464.73 -236.005 1438.23 -271.242 1402.3 -299.947C1359.42 -334.201 1301.53 -360.747 1233.62 -375.408" stroke="#C7C7C7" stroke-miterlimit="10"/>
<path d="M1069.8 1181.76C997.198 1117.3 949.939 1030.82 993.998 955.569C1027.51 898.341 1110.3 854.781 1199.87 831.239C1275.06 811.473 1352.91 800.35 1406.49 772.639C1474.07 737.687 1495.25 682.027 1515.32 618.365C1535.74 553.553 1533.31 490.18 1577.91 435.748C1609.65 397.006 1665.89 365.548 1729.56 342.212C1840.2 301.685 1954.69 314.088 2043.14 271.539C2126.36 231.502 2161.94 183.075 2159.74 141.394C2157.39 96.759 2094.51 39.184 1991.19 23.51C1924.81 13.445 1851.95 2.796 1776.99 -3.224C1694.15 -9.876 1614.07 -34.287 1573.37 -72.997C1536.2 -108.34 1526.32 -153.544 1503.75 -198.258C1484.06 -237.237 1459.85 -273.482 1425.46 -303.612C1383.94 -339.999 1326.16 -368.834 1257.48 -385.393" stroke="#C2C2C2" stroke-miterlimit="10"/>
<path d="M1075.61 1181.56C1003.16 1114.52 952.91 1026.89 996.864 949.58C1029.79 891.644 1112.81 847.07 1204.04 824.397C1279.69 805.597 1358.49 796.905 1415.55 771.072C1487.41 738.544 1516.83 683.414 1537.38 620.103C1558.68 554.486 1550.62 489.342 1593.4 432.794C1624.2 392.109 1681.33 359.008 1746.28 334.565C1851.11 295.128 1960.76 302.317 2046.75 261.237C2126.36 223.206 2164.81 176.802 2164.4 134.805C2163.97 90.439 2104.12 35.233 2008.53 17.474C1943.3 5.355 1871.62 -6.25798 1797.48 -12.514C1717.99 -19.229 1640.48 -40.828 1598.18 -76.678C1558.22 -110.556 1544.93 -154.982 1522.97 -199.222C1503.46 -238.532 1481.55 -275.789 1448.7 -307.322C1408.59 -345.842 1350.89 -376.953 1281.38 -395.422" stroke="#BEBEBE" stroke-miterlimit="10"/>
<path d="M1081.45 1181.37C1009.13 1111.77 955.955 1022.99 999.731 943.593C1032.06 884.959 1115.34 839.329 1208.22 817.556C1284.3 799.702 1364.07 793.461 1424.59 769.524C1500.72 739.409 1538.41 684.824 1559.45 621.873C1581.65 555.481 1567.87 488.537 1608.88 429.856C1638.68 387.228 1696.82 352.531 1763 326.951C1862.07 288.651 1966.8 290.564 2050.33 250.969C2126.34 214.929 2167.65 170.547 2169.01 128.25C2170.44 84.15 2113.79 31.143 2025.8 11.456C1961.83 -2.85901 1891.2 -15.278 1817.9 -21.787C1741.74 -28.549 1666.74 -47.304 1622.96 -80.358C1580.08 -112.701 1563.49 -156.419 1542.14 -200.169C1522.81 -239.811 1503.25 -278.063 1471.89 -311.022C1433.24 -351.676 1375.54 -385.077 1305.27 -405.443" stroke="#BABABA" stroke-miterlimit="10"/>
<path d="M1087.28 1181.18C1015.12 1109 959.002 1019.08 1002.6 937.62C1034.37 878.291 1117.85 831.602 1212.39 810.714C1288.94 793.809 1369.58 789.922 1433.62 767.96C1513.96 740.168 1559.99 686.211 1581.52 623.611C1604.61 556.429 1585.1 487.711 1624.34 426.901C1653.12 382.313 1712.33 346.084 1779.66 319.301C1873.05 282.155 1972.68 278.695 2053.86 240.664C2126.13 206.536 2170.39 164.271 2173.59 121.674C2176.87 77.845 2123.62 26.874 2043.06 5.43301C1975.93 -12.3566 1907.45 -24.5649 1838.31 -31.067C1765.5 -37.877 1692.9 -53.708 1647.69 -84.044C1601.86 -114.775 1582.08 -157.877 1561.34 -201.138C1542.19 -241.112 1524.99 -280.359 1495.11 -314.738C1457.94 -357.524 1400.21 -393.201 1329.15 -415.479" stroke="#B5B5B5" stroke-miterlimit="10"/>
<path d="M1093.09 1180.99C1021.06 1106.24 962.048 1015.18 1005.47 931.647C1036.67 871.607 1120.36 823.86 1216.54 803.888C1293.52 787.898 1375.16 786.488 1442.64 766.426C1527.27 741.067 1581.57 687.631 1603.56 625.395C1627.57 557.424 1602.31 486.94 1639.81 423.995C1667.53 377.464 1727.92 339.749 1796.35 311.704C1884.08 275.759 1978.73 266.974 2057.42 230.413C2126.08 198.292 2173.13 158.033 2178.18 115.136C2183.3 71.575 2133.68 22.516 2060.32 -0.564026C1999.39 -19.729 1930.29 -33.27 1858.74 -40.317C1789.26 -47.158 1719.07 -60.004 1672.48 -87.685C1623.61 -116.725 1600.67 -159.291 1580.58 -202.061C1561.63 -242.367 1546.81 -282.594 1518.37 -318.412C1482.73 -363.337 1424.95 -401.304 1353.09 -425.478" stroke="#B1B1B1" stroke-miterlimit="10"/>
<path d="M1098.93 1180.8C1027.05 1103.49 965.146 1011.28 1008.33 925.674C1038.97 864.939 1122.87 816.101 1220.71 797.062C1298.15 781.989 1380.76 783.079 1451.67 764.877C1540.61 741.935 1603.35 689.053 1625.6 627.148C1650.76 558.434 1619.45 486.133 1655.27 421.048C1681.94 372.589 1743.59 333.437 1813.04 304.065C1895.17 269.337 1984.77 255.211 2060.98 220.12C2126.03 190.005 2175.87 151.738 2182.78 108.572C2189.72 65.264 2144.1 18.038 2077.59 -6.578C2018.58 -28.445 1949.87 -42.27 1879.16 -49.601C1813.04 -56.458 1745.2 -66.254 1697.22 -91.376C1645.23 -118.599 1619.37 -160.77 1599.74 -203.035C1581.1 -243.704 1568.56 -284.879 1541.58 -322.135C1507.48 -369.172 1449.62 -409.43 1376.97 -435.516" stroke="#ADADAD" stroke-miterlimit="10"/>
<path d="M1104.74 1180.61C1032.99 1100.72 968.422 1007.41 1011.17 919.687C1041.41 858.287 1125.32 808.313 1224.86 790.222C1302.73 776.065 1386.34 779.636 1460.71 763.33C1553.95 742.822 1624.86 690.461 1647.67 628.904C1673.68 559.384 1636.61 485.345 1670.73 418.104C1696.31 367.704 1759.39 327.204 1829.71 296.444C1906.31 262.944 1990.81 243.467 2064.51 209.844C2125.98 181.732 2178.54 145.452 2187.34 102.005C2196.07 58.95 2154.85 13.525 2094.82 -12.608C2038.09 -37.308 1969.38 -51.223 1899.54 -58.855C1836.74 -65.712 1771.31 -72.38 1721.96 -95.037C1666.82 -120.337 1637.89 -162.187 1618.89 -203.978C1600.41 -244.963 1590.32 -287.133 1564.75 -325.828C1532.24 -374.981 1474.25 -417.548 1400.81 -445.528" stroke="#A8A8A8" stroke-miterlimit="10"/>
<path d="M1110.58 1180.4C1038.98 1097.94 971.341 1003.46 1014.07 913.703C1043.64 851.575 1127.86 800.508 1229.04 783.365C1307.37 770.093 1391.95 776.176 1469.75 761.751C1567.29 743.676 1646.39 691.82 1669.74 630.643C1696.57 560.333 1653.77 484.543 1686.23 415.143C1710.7 362.813 1775.31 321.043 1846.42 288.79C1917.54 256.537 1996.88 231.69 2068.13 199.536C2125.98 173.436 2181.28 139.148 2192 95.414C2202.5 52.596 2166.15 9.02 2112.16 -18.646C2058.19 -46.312 1988.99 -60.2 1920.03 -68.146C1860.56 -75.003 1797.58 -78.446 1746.77 -98.719C1688.5 -121.975 1656.45 -163.625 1638.14 -204.925C1619.84 -246.242 1612.21 -289.392 1588.02 -329.525C1557.12 -380.796 1499.01 -425.652 1424.77 -455.546" stroke="#A4A4A4" stroke-miterlimit="10"/>
</g>
<defs>
<linearGradient id="paint0_linear" x1="960" y1="0" x2="960" y2="790" gradientUnits="userSpaceOnUse">
<stop stop-color="white"/>
<stop offset="0.463542" stop-color="white" stop-opacity="0"/>
<stop offset="1" stop-color="white"/>
</linearGradient>
<clipPath id="clip0">
<rect width="1920" height="790" fill="white"/>
</clipPath>
</defs>
</svg>
